<svg version="1.1" id="Layer_1" xmlns="http://www.w3.org/2000/svg" xmlns:xlink="http://www.w3.org/1999/xlink" x="0px" y="0px"
	 width="100%" viewBox="0 0 1024 1024" enable-background="new 0 0 1024 1024" xml:space="preserve">
<path fill="#000000" opacity="1.000000" stroke="none" 
	d="
M1.000000,692.000000 
	C1.000000,581.644043 1.000000,471.288055 1.337630,360.541321 
	C11.838494,358.477936 22.310280,358.537201 30.025490,349.325500 
	C35.496204,342.793640 43.194695,339.561218 52.404613,340.721588 
	C57.767605,341.397278 63.404915,341.963593 68.687424,339.656189 
	C77.388763,335.855408 86.013939,331.956482 93.725616,326.242798 
	C96.766701,323.989655 100.175941,321.916199 103.740753,320.742920 
	C117.981171,316.056061 129.670044,307.431671 140.758545,297.749481 
	C142.630402,296.114990 144.468765,294.083252 146.698822,293.281677 
	C155.078522,290.269592 162.467026,285.426880 170.228592,281.268219 
	C174.656174,278.895874 179.420029,277.407745 184.274399,276.122620 
	C188.290543,275.059387 192.567444,274.256622 196.108170,272.245697 
	C212.755508,262.790894 231.242584,257.864105 248.919205,251.146896 
	C273.308655,241.878784 298.273407,233.949341 323.426239,226.793961 
	C326.464417,225.929672 329.526154,225.009155 332.395721,223.713242 
	C354.485901,213.737000 378.098511,208.276062 400.947266,200.557419 
	C411.031708,197.150757 421.710541,195.408264 431.340790,190.739136 
	C447.692291,182.811264 464.879333,176.865601 481.659271,170.066513 
	C500.555298,162.409988 520.676331,157.732117 540.353333,152.066940 
	C549.859680,149.329971 559.112366,146.258102 567.324829,140.554565 
	C573.138489,136.516968 579.725159,134.178253 586.444885,132.104080 
	C591.856567,130.433655 597.735901,130.206680 602.767517,127.521309 
	C612.794678,122.169807 623.372375,118.200752 633.996765,114.307701 
	C637.172607,113.143982 640.024353,111.513557 642.383423,109.044044 
	C644.339661,106.996353 646.306458,104.933891 648.835754,103.565071 
	C664.164185,95.269608 679.822693,88.137672 697.887451,88.914871 
	C703.718933,89.165771 709.554504,88.748512 715.318420,87.751663 
	C721.953003,86.604240 728.570007,86.964027 735.239868,87.469200 
	C748.382141,88.464600 761.542236,89.146103 774.415771,85.202873 
	C784.493958,82.115868 794.787720,80.402550 805.316589,79.642761 
	C811.544434,79.193352 817.100952,80.240372 822.609680,83.152229 
	C828.832458,86.441559 833.628418,92.009918 840.160889,94.529724 
	C849.922058,98.294937 859.937195,101.448639 870.145935,103.827927 
	C877.157654,105.462090 883.960083,108.156265 888.069153,113.893623 
	C895.976990,124.934792 907.887146,130.087387 919.020691,136.093765 
	C931.898132,143.040909 943.779297,151.114761 954.325012,161.122269 
	C967.409119,173.538589 975.245605,188.992584 979.095520,206.490952 
	C980.233215,211.661972 982.667114,215.308395 987.976257,216.688934 
	C992.244568,217.798843 994.596008,220.848450 996.153748,224.777405 
	C1000.258850,235.131378 1000.817993,245.861679 999.491028,256.747467 
	C998.222717,267.151276 996.372498,277.441406 997.968384,288.055176 
	C999.799927,300.235565 1000.264648,312.595459 1002.520386,324.744934 
	C1003.922302,332.295776 1003.953247,339.903931 1003.572876,347.627472 
	C1002.677002,365.822784 996.150635,382.770935 992.839905,400.395233 
	C988.976196,420.963287 983.784180,440.919708 974.801208,459.939789 
	C970.129333,469.831696 968.005432,480.852020 962.329102,490.403656 
	C960.289062,493.836639 958.170837,497.254211 956.960022,501.104095 
	C952.111328,516.520508 946.073547,531.532410 940.882080,546.796997 
	C932.628113,571.066528 922.728271,594.760986 915.618347,619.430786 
	C912.945251,628.705566 907.988403,637.187378 905.448669,646.550293 
	C899.989380,666.676147 892.281067,686.055603 885.172424,705.598267 
	C874.630310,734.579956 865.915710,764.082214 857.682068,793.750549 
	C855.543030,801.458069 853.828979,809.302551 850.844421,816.725586 
	C842.508667,837.458435 838.151794,859.479675 829.998779,880.277100 
	C826.167603,890.049805 826.323181,900.869019 822.296814,910.733154 
	C818.720947,919.493652 816.254272,928.712280 814.330505,938.020691 
	C812.238464,948.142639 809.922180,958.118347 804.901123,967.372681 
	C801.315613,973.981323 799.281006,981.020142 800.773071,988.980652 
	C802.256653,996.896301 799.945435,1004.091797 793.890625,1009.928650 
	C791.398987,1012.330566 789.330261,1015.230591 787.379578,1018.114075 
	C785.980713,1020.181702 784.918945,1022.589722 787.000000,1025.000000 
	C651.644043,1025.000000 516.288025,1025.000000 380.529907,1024.673340 
	C379.768433,1016.729065 377.494629,1010.128540 371.077881,1005.268188 
	C367.318878,1002.420898 365.184174,998.455017 363.603027,993.803711 
	C361.161011,986.619812 358.198242,979.586548 352.631592,973.877869 
	C345.328033,966.387878 337.716705,959.144897 331.467316,950.673767 
	C330.287415,949.074341 329.079865,947.339966 327.495148,946.219177 
	C314.863251,937.285583 304.175446,925.635132 290.353271,918.463745 
	C277.214447,911.646912 269.444946,900.577759 262.378326,888.222778 
	C254.860046,875.078064 248.131226,861.506592 240.195786,848.580688 
	C231.733292,834.796387 224.819153,820.255493 222.106750,804.034546 
	C219.697266,789.625000 200.996307,767.560852 182.936813,767.521179 
	C178.306473,767.510986 173.837189,765.725952 169.309845,764.611267 
	C153.912949,760.820190 139.573761,753.966675 124.406097,749.509033 
	C118.751045,747.847107 112.856102,746.358521 108.134941,742.204346 
	C101.928551,736.743286 95.622940,731.358459 87.597443,728.550842 
	C86.073807,728.017822 84.629936,726.993530 83.407448,725.905823 
	C75.690697,719.039124 66.965919,714.272339 56.897346,711.605835 
	C48.733170,709.443542 40.152996,707.969666 33.047520,703.014709 
	C24.215431,696.855835 14.418586,693.144226 4.177631,690.283508 
	C2.329845,689.767395 1.898853,691.145020 1.000000,692.000000 
M681.588013,770.127319 
	C681.271118,765.814880 684.067078,762.378540 685.215515,758.503479 
	C688.901611,746.066162 694.172119,734.102478 697.983643,721.695618 
	C699.046509,718.235901 701.269775,715.216553 701.588074,711.563965 
	C701.976685,707.105164 704.150818,703.126038 705.561829,699.057312 
	C708.067261,691.832886 711.096558,684.749390 713.610352,677.487732 
	C716.937317,667.877014 720.346252,658.294250 723.778320,648.720459 
	C726.981445,639.785522 730.324280,630.900330 733.487305,621.951416 
	C736.038513,614.733521 738.189697,607.367615 740.924133,600.222656 
	C744.265503,591.491821 747.164368,582.587463 750.202820,573.775208 
	C753.006104,565.644897 755.892273,557.511719 758.615295,549.337646 
	C760.997131,542.187683 763.274170,535.002502 765.694885,527.865845 
	C768.595642,519.313965 771.276611,510.666534 774.657654,502.305084 
	C777.544312,495.166138 779.679993,487.770325 782.260010,480.549286 
	C784.940063,473.048401 787.245056,465.334991 789.841919,457.768616 
	C794.158752,445.190643 797.902161,432.429626 802.302734,419.871033 
	C804.925659,412.385651 807.165466,404.659515 809.394836,396.993073 
	C811.912903,388.333710 814.986450,379.788025 817.647766,371.133331 
	C819.719666,364.395538 821.472839,357.534027 823.747986,350.900696 
	C826.455811,343.005981 828.703430,334.945068 831.086609,326.990112 
	C832.189758,323.307831 834.355164,319.789764 834.540588,315.866119 
	C834.815308,310.053070 837.057678,304.590881 838.501160,299.183380 
	C840.251831,292.624908 840.603577,285.894745 842.394165,279.368103 
	C844.639160,271.185394 843.604431,262.512756 843.615784,254.037781 
	C843.624207,247.770508 841.473328,242.003342 838.953186,236.456696 
	C833.218140,223.834244 821.318787,220.192017 809.310059,217.581726 
	C797.674500,215.052567 786.457214,220.540222 774.888123,220.776337 
	C774.577881,220.782669 774.244263,220.969559 773.968567,221.145905 
	C768.531067,224.624512 761.961243,223.958954 756.025635,226.020004 
	C748.184875,228.742615 739.932617,230.650696 732.082153,233.415527 
	C719.898743,237.706329 707.642517,241.852448 695.407227,245.933777 
	C688.340332,248.291077 681.455017,251.252289 674.201355,253.254898 
	C663.623474,256.175293 653.463562,260.599274 643.101501,264.315399 
	C634.810913,267.288666 626.348450,269.831390 618.213440,273.176056 
	C610.520752,276.338837 602.562256,278.648407 594.781860,281.501892 
	C588.616333,283.763092 582.460327,286.056610 576.356628,288.478363 
	C567.390869,292.035736 558.007324,294.378662 549.135498,298.261047 
	C542.445007,301.188873 535.395691,303.295502 528.509644,305.777740 
	C521.530640,308.293457 514.591797,310.926697 507.568604,313.311920 
	C501.662048,315.317871 495.909119,317.717804 489.927368,319.562592 
	C482.972717,321.707458 476.312378,324.792908 469.478973,327.348907 
	C462.732635,329.872345 455.921234,332.221161 449.153687,334.688629 
	C440.347900,337.899231 431.587555,341.237030 422.750336,344.357849 
	C415.854462,346.793091 408.675507,348.525787 401.980835,351.404419 
	C395.043701,354.387238 387.858307,356.613434 380.800964,359.173767 
	C366.000366,364.543213 350.907867,369.101929 336.019623,374.238281 
	C326.163574,377.638550 316.518768,381.651184 306.662567,385.051056 
	C294.710663,389.173859 282.545074,392.686035 270.640594,396.934875 
	C259.745758,400.823303 248.896469,404.894501 238.124268,409.077942 
	C226.485596,413.597870 214.586456,417.374878 202.967316,421.972717 
	C191.759415,426.407806 180.282440,430.364838 169.351715,435.370850 
	C157.635269,440.736664 146.741379,447.868530 138.036133,457.718658 
	C131.557922,465.048859 127.456955,473.785034 125.566101,483.191376 
	C123.452911,493.703796 127.161743,503.634521 132.281754,512.527527 
	C144.390320,533.559204 163.450668,546.898743 184.470428,557.908752 
	C191.071472,561.366394 197.810593,564.472656 204.636536,567.418640 
	C213.955750,571.440735 223.070923,575.882690 232.214706,580.286499 
	C245.410690,586.641968 259.101746,591.981873 272.212982,598.496826 
	C281.906799,603.313721 291.715210,607.869873 301.490143,612.499512 
	C314.237335,618.536865 327.214294,624.094849 339.897461,630.260132 
	C350.528137,635.427612 360.943024,641.052856 371.333374,646.696472 
	C379.390564,651.072754 386.959076,656.201477 394.061981,662.059998 
	C405.562805,671.545837 414.563782,683.064758 421.686157,696.007507 
	C427.303436,706.215271 432.360931,716.738464 437.455139,727.224487 
	C441.596680,735.749512 445.361389,744.456787 449.408997,753.028564 
	C452.945496,760.517944 456.758148,767.877991 460.240692,775.391602 
	C464.540771,784.669128 468.397308,794.157166 472.859100,803.353638 
	C479.039398,816.092407 486.090668,828.426514 491.876770,841.333923 
	C498.417877,855.925537 504.575867,870.648865 512.521973,884.586670 
	C524.595215,905.763672 537.617432,926.142883 558.504700,939.837524 
	C575.141113,950.745239 590.888123,949.616882 606.333923,936.982910 
	C620.367065,925.504333 628.786804,909.638855 635.488464,893.028748 
	C639.416016,883.294189 644.124512,873.916748 647.615723,863.947571 
	C649.851746,857.562378 652.443604,851.113464 655.355408,844.866943 
	C658.506653,838.106689 660.417236,830.774048 662.969360,823.727478 
	C667.268005,811.858704 670.830383,799.742676 675.367676,787.943176 
	C677.523987,782.335449 678.827942,776.379761 681.588013,770.127319 
z"/>
</svg>