<?xml version="1.0" encoding="UTF-8"?>
<svg version="1.1" xmlns="http://www.w3.org/2000/svg" width="3264" height="3264">
<path d="M0 0 C1.43623475 -0.00390047 2.87246836 -0.00823784 4.30870056 -0.01298523 C7.29804246 -0.02038734 10.2872661 -0.02019921 13.27661133 -0.01489258 C17.07781301 -0.00908891 20.87852885 -0.02607966 24.67965031 -0.04923725 C27.63877618 -0.06407242 30.59778741 -0.0648334 33.55694389 -0.06172752 C34.95736088 -0.06223527 36.35778522 -0.06736835 37.75816536 -0.07753944 C57.52079415 -0.20356835 57.52079415 -0.20356835 63.5738678 4.77983093 C64.77734375 6.30078125 64.77734375 6.30078125 64.77734375 8.30078125 C65.36 8.27757812 65.94265625 8.254375 66.54296875 8.23046875 C75.27243695 8.03831065 84.39016788 8.21809699 91.77734375 13.30078125 C92.35484375 13.96078125 92.93234375 14.62078125 93.52734375 15.30078125 C96.36297168 17.82133941 99.01204627 18.41808725 102.65625 19.296875 C104.77734375 20.30078125 104.77734375 20.30078125 106.19140625 22.7265625 C108.22216448 26.02279322 110.04218285 26.60494209 113.58984375 28.05078125 C119.04529489 30.58743426 121.69438405 33.02030255 124.59375 38.25 C125.69185078 40.35890943 125.69185078 40.35890943 127.4296875 41.9453125 C128.77734375 43.30078125 128.77734375 43.30078125 128.77734375 45.30078125 C129.43734375 45.30078125 130.09734375 45.30078125 130.77734375 45.30078125 C130.93589844 45.98785156 131.09445313 46.67492187 131.2578125 47.3828125 C132.46473301 53.01560412 132.46473301 53.01560412 136.27734375 56.92578125 C137.10234375 57.37953125 137.92734375 57.83328125 138.77734375 58.30078125 C142.82587637 65.67489424 142.48781137 74.07406807 142.77734375 82.30078125 C144.42734375 82.63078125 146.07734375 82.96078125 147.77734375 83.30078125 C150.43158755 89.97176017 151.30398757 95.96559656 151.46484375 103.11328125 C151.49755371 104.20584229 151.53026367 105.29840332 151.56396484 106.42407227 C152.20430097 131.53439621 152.02793706 156.69224006 151.40234375 181.80078125 C151.38705627 182.51104462 151.3717688 183.22130798 151.35601807 183.95309448 C150.80260596 208.52236127 150.80260596 208.52236127 144.77734375 215.30078125 C144.11734375 215.30078125 143.45734375 215.30078125 142.77734375 215.30078125 C142.75546997 216.72173096 142.75546997 216.72173096 142.7331543 218.17138672 C142.67160795 221.73150563 142.59736912 225.29091334 142.51489258 228.85058594 C142.4819142 230.38271334 142.45380064 231.91495434 142.4309082 233.44726562 C142.09985713 255.02897838 142.09985713 255.02897838 136.1328125 261.34765625 C132.89835778 265.40279352 133.07890039 268.51186084 133.08984375 273.55078125 C133.04675283 275.24623065 132.9986235 276.94155993 132.9453125 278.63671875 C132.92259277 279.44334961 132.89987305 280.24998047 132.87646484 281.08105469 C132.60031801 287.26511128 131.66575924 293.32360942 127.77734375 298.30078125 C126.78734375 298.96078125 125.79734375 299.62078125 124.77734375 300.30078125 C124.22507197 302.59836653 124.22507197 302.59836653 124.15234375 305.28125 C124.0853125 306.28091797 124.01828125 307.28058594 123.94921875 308.31054688 C123.86414062 309.88352539 123.86414062 309.88352539 123.77734375 311.48828125 C123.05650662 324.56983688 123.05650662 324.56983688 119.77734375 330.30078125 C119.09744385 330.75710938 118.41754395 331.2134375 117.71704102 331.68359375 C115.58919047 333.14036504 115.58919047 333.14036504 115.18725586 335.53393555 C115.1435083 336.38898682 115.09976074 337.24403809 115.0546875 338.125 C114.99087891 339.07181641 114.92707031 340.01863281 114.86132812 340.99414062 C114.81298828 341.98220703 114.76464844 342.97027344 114.71484375 343.98828125 C114.34055001 350.93350951 113.99219859 357.03575234 110.77734375 363.30078125 C108.08984375 364.80078125 108.08984375 364.80078125 105.77734375 365.30078125 C105.75546997 366.14672852 105.75546997 366.14672852 105.7331543 367.00976562 C105.65789521 369.60740071 105.56149891 372.20385768 105.46484375 374.80078125 C105.44228516 375.68765625 105.41972656 376.57453125 105.39648438 377.48828125 C105.16010833 383.33321625 104.49566938 388.06815442 101.77734375 393.30078125 C99.08984375 394.30078125 99.08984375 394.30078125 96.77734375 394.30078125 C96.75546997 395.14672852 96.75546997 395.14672852 96.7331543 396.00976562 C96.65789521 398.60740071 96.56149891 401.20385768 96.46484375 403.80078125 C96.44228516 404.68765625 96.41972656 405.57453125 96.39648438 406.48828125 C96.10535759 413.6870526 94.98812979 420.8634393 89.77734375 426.30078125 C89.11734375 426.30078125 88.45734375 426.30078125 87.77734375 426.30078125 C87.73246826 426.93580566 87.68759277 427.57083008 87.64135742 428.22509766 C87.42890198 431.12645055 87.19705006 434.02594499 86.96484375 436.92578125 C86.89458984 437.92480469 86.82433594 438.92382812 86.75195312 439.953125 C86.30754304 445.32159882 85.87409483 449.72423071 82.77734375 454.30078125 C82.07738281 454.7184375 81.37742187 455.13609375 80.65625 455.56640625 C77.41009754 458.56285467 77.94265683 462.82257048 77.71484375 467.05078125 C77.33920025 473.39498262 76.95332998 478.6969626 73.77734375 484.30078125 C73.09736328 484.60314697 72.41738281 484.9055127 71.71679688 485.21704102 C69.58781446 486.11212175 69.58781446 486.11212175 69.18725586 488.25268555 C69.1435083 489.03554932 69.09976074 489.81841309 69.0546875 490.625 C68.99087891 491.48931641 68.92707031 492.35363281 68.86132812 493.24414062 C68.78881836 494.60249023 68.78881836 494.60249023 68.71484375 495.98828125 C67.85631773 510.56202539 67.85631773 510.56202539 62.65625 515.1875 C59.76260335 518.44210049 59.97244548 521.88517826 59.71484375 526.11328125 C59.16325083 534.37355551 58.0873863 540.4114082 51.77734375 546.30078125 C50.7079828 549.50886411 50.56833107 552.11715773 50.40234375 555.48828125 C49.90611249 562.45102605 48.81381584 569.04533211 43.77734375 574.30078125 C43.11734375 574.30078125 42.45734375 574.30078125 41.77734375 574.30078125 C41.73996094 575.26757812 41.70257812 576.234375 41.6640625 577.23046875 C40.85010545 593.35001035 40.85010545 593.35001035 37.77734375 599.30078125 C36.93816406 600.04585937 36.09898437 600.7909375 35.234375 601.55859375 C32.08938762 605.06857967 31.94965665 608.04475136 31.71484375 612.55078125 C30.60740561 625.59456145 30.60740561 625.59456145 26.77734375 630.30078125 C25.45569128 630.67777414 24.12182522 631.01572254 22.77734375 631.30078125 C22.73996094 632.51894531 22.70257812 633.73710938 22.6640625 634.9921875 C22.59836258 636.61591415 22.53191666 638.23961074 22.46484375 639.86328125 C22.43100586 641.06307617 22.43100586 641.06307617 22.39648438 642.28710938 C22.1235986 648.36501985 21.1412043 653.36959417 17.21484375 658.23828125 C15.77734375 659.30078125 15.77734375 659.30078125 13.77734375 659.30078125 C13.7515625 660.49574219 13.72578125 661.69070313 13.69921875 662.921875 C13.12006676 681.24116428 13.12006676 681.24116428 8.77734375 686.30078125 C6.640625 687.015625 6.640625 687.015625 4.77734375 687.30078125 C4.73996094 688.43515625 4.70257812 689.56953125 4.6640625 690.73828125 C3.9307905 708.81363643 3.9307905 708.81363643 -0.69921875 713.93359375 C-2.22265625 715.30078125 -2.22265625 715.30078125 -4.22265625 716.30078125 C-4.64102205 718.13733466 -4.64102205 718.13733466 -4.75 720.34375 C-4.82025391 721.17068359 -4.89050781 721.99761719 -4.96289062 722.84960938 C-5.09292743 724.58901256 -5.22058761 726.32859528 -5.34570312 728.06835938 C-5.77525928 733.07210813 -6.35342188 737.02022975 -9.22265625 741.30078125 C-9.92261719 741.57535156 -10.62257813 741.84992187 -11.34375 742.1328125 C-11.96378906 742.51824219 -12.58382812 742.90367187 -13.22265625 743.30078125 C-13.77626586 746.2783032 -14.10601358 748.98585007 -14.28515625 751.98828125 C-14.68522541 758.04858815 -15.32789809 762.89067498 -18.22265625 768.30078125 C-20.91015625 769.73828125 -20.91015625 769.73828125 -23.22265625 770.30078125 C-23.18140625 771.53828125 -23.14015625 772.77578125 -23.09765625 774.05078125 C-23.09765625 781.23599699 -23.63763077 789.94243416 -27.22265625 796.30078125 C-29.84765625 797.11328125 -29.84765625 797.11328125 -32.22265625 797.30078125 C-32.26003906 798.50734375 -32.29742188 799.71390625 -32.3359375 800.95703125 C-32.40164844 802.57164303 -32.46809396 804.18622503 -32.53515625 805.80078125 C-32.56899414 806.98800781 -32.56899414 806.98800781 -32.60351562 808.19921875 C-32.85594475 813.79855573 -33.69548671 818.25759966 -36.22265625 823.30078125 C-38.91015625 824.80078125 -38.91015625 824.80078125 -41.22265625 825.30078125 C-41.26003906 826.35136719 -41.29742188 827.40195313 -41.3359375 828.484375 C-42.0596557 845.17761135 -42.0596557 845.17761135 -45.22265625 850.30078125 C-46.47949219 851.13222656 -46.47949219 851.13222656 -47.76171875 851.98046875 C-51.33296784 855.34764647 -51.11055763 858.44145716 -51.34765625 863.17578125 C-51.69118964 868.86729388 -52.03026388 873.37243358 -55.22265625 878.30078125 C-55.92261719 878.7390625 -56.62257813 879.17734375 -57.34375 879.62890625 C-60.45779734 882.39982571 -60.04442167 886.05779695 -60.28515625 890.05078125 C-60.6848937 896.07151817 -61.25906857 900.96221684 -64.22265625 906.30078125 C-64.8988501 906.60371094 -65.57504395 906.90664062 -66.27172852 907.21875 C-68.40623951 908.1165232 -68.40623951 908.1165232 -68.88867188 910.26855469 C-68.96794922 911.0577832 -69.04722656 911.84701172 -69.12890625 912.66015625 C-69.23332031 913.52898438 -69.33773437 914.3978125 -69.4453125 915.29296875 C-69.53683594 916.20304687 -69.62835937 917.113125 -69.72265625 918.05078125 C-70.88506281 929.41289611 -70.88506281 929.41289611 -75.22265625 934.30078125 C-76.21265625 934.30078125 -77.20265625 934.30078125 -78.22265625 934.30078125 C-78.2484375 935.33976562 -78.27421875 936.37875 -78.30078125 937.44921875 C-78.90786806 954.26007779 -78.90786806 954.26007779 -83.22265625 960.30078125 C-85.359375 961.0546875 -85.359375 961.0546875 -87.22265625 961.30078125 C-87.26003906 962.29078125 -87.29742188 963.28078125 -87.3359375 964.30078125 C-88.10434307 980.97138225 -88.10434307 980.97138225 -93.76171875 987.01171875 C-96.69874182 990.45736133 -97.09230627 993.95231634 -97.34765625 998.36328125 C-97.69083196 1003.35787915 -98.13207081 1007.19186926 -101.22265625 1011.30078125 C-101.92261719 1011.89117188 -102.62257813 1012.4815625 -103.34375 1013.08984375 C-106.06375426 1016.29051405 -106.02532791 1019.64324543 -106.28515625 1023.67578125 C-106.67340663 1029.19756449 -107.18104862 1033.48736334 -110.22265625 1038.30078125 C-112.91015625 1039.67578125 -112.91015625 1039.67578125 -115.22265625 1040.30078125 C-115.16078125 1042.15703125 -115.16078125 1042.15703125 -115.09765625 1044.05078125 C-115.17253945 1059.8261762 -115.17253945 1059.8261762 -119.72265625 1064.55078125 C-122.22265625 1066.30078125 -122.22265625 1066.30078125 -124.22265625 1066.30078125 C-124.27873047 1068.00234375 -124.27873047 1068.00234375 -124.3359375 1069.73828125 C-124.97663749 1085.62024843 -124.97663749 1085.62024843 -128.22265625 1091.30078125 C-130.83203125 1092.4921875 -130.83203125 1092.4921875 -133.22265625 1093.30078125 C-133.27873047 1094.75097656 -133.27873047 1094.75097656 -133.3359375 1096.23046875 C-134.17987673 1112.94377505 -134.17987673 1112.94377505 -137.22265625 1118.30078125 C-138.06054688 1118.70167969 -138.8984375 1119.10257813 -139.76171875 1119.515625 C-142.3339842 1121.00141729 -142.3339842 1121.00141729 -142.76757812 1123.12255859 C-143.05996433 1125.45594565 -143.23125128 1127.76452934 -143.34765625 1130.11328125 C-143.97643886 1140.59015913 -143.97643886 1140.59015913 -147.22265625 1145.30078125 C-149.91015625 1146.67578125 -149.91015625 1146.67578125 -152.22265625 1147.30078125 C-152.18785156 1148.31785156 -152.18785156 1148.31785156 -152.15234375 1149.35546875 C-151.83409119 1165.76820815 -151.83409119 1165.76820815 -156.72265625 1171.92578125 C-159.22265625 1174.30078125 -159.22265625 1174.30078125 -161.22265625 1174.30078125 C-161.26003906 1175.36296875 -161.29742188 1176.42515625 -161.3359375 1177.51953125 C-162.07835417 1194.68233838 -162.07835417 1194.68233838 -166.69921875 1200 C-168.22265625 1201.30078125 -168.22265625 1201.30078125 -170.22265625 1201.30078125 C-170.26003906 1202.30238281 -170.29742188 1203.30398438 -170.3359375 1204.3359375 C-171.0831399 1220.63723266 -171.0831399 1220.63723266 -178.22265625 1227.30078125 C-179.24320574 1230.36242972 -179.4250427 1232.77849119 -179.59765625 1235.98828125 C-180.13983337 1242.79835445 -181.0246653 1247.94385864 -185.76171875 1253.0234375 C-188.70294913 1256.46274485 -189.09246884 1259.95512462 -189.34765625 1264.36328125 C-189.68928389 1269.33534835 -190.08219312 1273.24133467 -193.22265625 1277.30078125 C-194.27259766 1277.94273437 -194.27259766 1277.94273437 -195.34375 1278.59765625 C-198.32213898 1281.29740177 -198.04155891 1284.75066281 -198.28515625 1288.55078125 C-198.69915555 1294.4081047 -199.42674151 1299.06862041 -202.22265625 1304.30078125 C-204.91015625 1305.23828125 -204.91015625 1305.23828125 -207.22265625 1305.30078125 C-207.18140625 1306.55890625 -207.14015625 1307.81703125 -207.09765625 1309.11328125 C-207.09765625 1316.0467738 -207.8062162 1324.15548657 -211.22265625 1330.30078125 C-213.84765625 1331.11328125 -213.84765625 1331.11328125 -216.22265625 1331.30078125 C-216.2484375 1332.35136719 -216.27421875 1333.40195313 -216.30078125 1334.484375 C-216.85420694 1349.92145845 -216.85420694 1349.92145845 -221.22265625 1356.30078125 C-221.91746094 1356.92082031 -222.61226562 1357.54085938 -223.328125 1358.1796875 C-225.75757059 1360.89966472 -225.68502022 1362.38933599 -225.72265625 1365.98828125 C-226.02517631 1371.75023314 -227.10980022 1376.39926826 -230.22265625 1381.30078125 C-230.90457031 1381.87957031 -231.58648438 1382.45835938 -232.2890625 1383.0546875 C-234.97467607 1386.17433963 -235.05230346 1389.2870372 -235.34765625 1393.23828125 C-236.15499144 1402.60852266 -236.15499144 1402.60852266 -238.22265625 1406.30078125 C-239.06441406 1406.90148438 -239.90617187 1407.5021875 -240.7734375 1408.12109375 C-244.10676229 1411.08759332 -244.14273094 1413.95123653 -244.41015625 1418.17578125 C-245.21382229 1428.13385013 -245.21382229 1428.13385013 -247.22265625 1432.30078125 C-249.84765625 1433.67578125 -249.84765625 1433.67578125 -252.22265625 1434.30078125 C-252.29258789 1434.91074951 -252.36251953 1435.52071777 -252.43457031 1436.14916992 C-252.76339394 1438.93121873 -253.11775535 1441.70944376 -253.47265625 1444.48828125 C-253.58222656 1445.44798828 -253.69179687 1446.40769531 -253.8046875 1447.39648438 C-255.01589022 1456.60799979 -255.01589022 1456.60799979 -259.22265625 1460.30078125 C-260.21265625 1460.30078125 -261.20265625 1460.30078125 -262.22265625 1460.30078125 C-262.26003906 1461.27917969 -262.29742188 1462.25757812 -262.3359375 1463.265625 C-263.13510543 1479.20197373 -263.13510543 1479.20197373 -266.22265625 1484.30078125 C-267.06441406 1484.86925781 -267.90617187 1485.43773438 -268.7734375 1486.0234375 C-272.1595368 1489.1719158 -271.98302295 1492.18243777 -272.16015625 1496.55078125 C-272.686109 1503.61336162 -273.85958584 1508.29733363 -279.22265625 1513.30078125 C-281.4553503 1515.5334753 -281.00755335 1521.06848296 -281.296875 1524.22265625 C-281.77149506 1528.59881414 -282.45532029 1531.7225515 -285.22265625 1535.30078125 C-285.92261719 1535.72746094 -286.62257813 1536.15414062 -287.34375 1536.59375 C-290.33117773 1539.30789952 -290.04199833 1542.79732302 -290.28515625 1546.61328125 C-290.66834524 1552.09619537 -291.03817235 1556.61271029 -294.22265625 1561.30078125 C-296.91015625 1562.67578125 -296.91015625 1562.67578125 -299.22265625 1563.30078125 C-299.26003906 1564.51894531 -299.29742188 1565.73710937 -299.3359375 1566.9921875 C-299.40163742 1568.61591415 -299.46808334 1570.23961074 -299.53515625 1571.86328125 C-299.55771484 1572.66314453 -299.58027344 1573.46300781 -299.60351562 1574.28710938 C-299.8425532 1579.61112802 -300.51569538 1583.65771591 -303.22265625 1588.30078125 C-305.91015625 1589.73828125 -305.91015625 1589.73828125 -308.22265625 1590.30078125 C-308.27873047 1591.87666016 -308.27873047 1591.87666016 -308.3359375 1593.484375 C-309.07249152 1610.47570499 -309.07249152 1610.47570499 -312.22265625 1615.30078125 C-313.07085938 1615.73648438 -313.9190625 1616.1721875 -314.79296875 1616.62109375 C-317.54598736 1618.10842393 -317.54598736 1618.10842393 -317.82421875 1621.3046875 C-317.83195312 1622.47902344 -317.8396875 1623.65335938 -317.84765625 1624.86328125 C-318.32963776 1637.11575868 -318.32963776 1637.11575868 -321.22265625 1642.30078125 C-322.47949219 1642.92146484 -322.47949219 1642.92146484 -323.76171875 1643.5546875 C-326.63946877 1645.18108483 -326.63946877 1645.18108483 -327.04296875 1649.06640625 C-327.16761011 1650.55945066 -327.26837368 1652.05464244 -327.34765625 1653.55078125 C-327.72756145 1659.43417792 -328.43286696 1664.03868474 -331.22265625 1669.30078125 C-333.91015625 1670.73828125 -333.91015625 1670.73828125 -336.22265625 1671.30078125 C-336.19945313 1671.90664062 -336.17625 1672.5125 -336.15234375 1673.13671875 C-335.98361773 1680.97042689 -336.05433452 1689.93976989 -341.22265625 1696.30078125 C-341.90714844 1696.51734375 -342.59164062 1696.73390625 -343.296875 1696.95703125 C-343.93238281 1697.40046875 -344.56789063 1697.84390625 -345.22265625 1698.30078125 C-345.55997054 1700.90205179 -345.67884238 1703.19984987 -345.66015625 1705.80078125 C-345.83181399 1712.84507686 -346.96679805 1718.45394802 -351.22265625 1724.30078125 C-351.88265625 1724.63078125 -352.54265625 1724.96078125 -353.22265625 1725.30078125 C-354.62307495 1729.50203736 -354.84834451 1733.83585725 -355.20898438 1738.23242188 C-355.82737541 1744.08251055 -357.94236624 1747.76184723 -361.91015625 1752.1796875 C-363.85626183 1755.32473312 -363.93345076 1758.63307195 -364.22265625 1762.23828125 C-364.74330342 1768.69312292 -365.90410773 1772.76834449 -370.33984375 1777.61328125 C-372.75266486 1781.05730806 -373.03928029 1784.2242015 -373.34765625 1788.30078125 C-374.17497438 1797.84134356 -374.17497438 1797.84134356 -376.22265625 1801.30078125 C-378.84765625 1802.61328125 -378.84765625 1802.61328125 -381.22265625 1803.30078125 C-381.26753174 1803.87521973 -381.31240723 1804.4496582 -381.35864258 1805.04150391 C-381.57134999 1807.67081119 -381.80308836 1810.29811486 -382.03515625 1812.92578125 C-382.10541016 1813.82941406 -382.17566406 1814.73304687 -382.24804688 1815.6640625 C-382.71539689 1820.78621866 -383.31095686 1824.9046861 -386.22265625 1829.30078125 C-388.91015625 1830.17578125 -388.91015625 1830.17578125 -391.22265625 1830.30078125 C-391.16078125 1832.09515625 -391.16078125 1832.09515625 -391.09765625 1833.92578125 C-391.11123545 1838.19643926 -391.46751841 1842.37278199 -391.97265625 1846.61328125 C-392.111875 1847.78503906 -392.25109375 1848.95679687 -392.39453125 1850.1640625 C-393.33066452 1853.70988803 -394.30920751 1855.11569469 -397.22265625 1857.30078125 C-398.21265625 1857.30078125 -399.20265625 1857.30078125 -400.22265625 1857.30078125 C-400.27873047 1858.98494141 -400.27873047 1858.98494141 -400.3359375 1860.703125 C-400.66635399 1868.72714173 -401.08514799 1875.79804412 -404.22265625 1883.30078125 C-405.87265625 1883.63078125 -407.52265625 1883.96078125 -409.22265625 1884.30078125 C-409.26003906 1885.33976562 -409.29742188 1886.37875 -409.3359375 1887.44921875 C-410.11101375 1905.195058 -410.11101375 1905.195058 -413.22265625 1910.30078125 C-415.83203125 1911.55859375 -415.83203125 1911.55859375 -418.22265625 1912.30078125 C-418.33222656 1913.53054688 -418.44179687 1914.7603125 -418.5546875 1916.02734375 C-418.71422111 1917.6602172 -418.87441218 1919.29302651 -419.03515625 1920.92578125 C-419.14053711 1922.13814453 -419.14053711 1922.13814453 -419.24804688 1923.375 C-419.74459643 1928.26104767 -420.5063032 1932.0837856 -423.22265625 1936.30078125 C-423.92390625 1936.7596875 -424.62515625 1937.21859375 -425.34765625 1937.69140625 C-427.83681755 1939.82793637 -427.81403568 1941.7443593 -428.08984375 1944.91015625 C-428.13367187 1945.6165625 -428.1775 1946.32296875 -428.22265625 1947.05078125 C-428.63710672 1953.58447096 -429.70233781 1959.09159107 -434.80273438 1963.74121094 C-436.55449714 1965.66525849 -436.74293785 1966.86556327 -437.06640625 1969.42578125 C-437.17855469 1970.2146875 -437.29070312 1971.00359375 -437.40625 1971.81640625 C-437.51066406 1972.63625 -437.61507812 1973.45609375 -437.72265625 1974.30078125 C-437.92980729 1975.92730054 -438.14813778 1977.55244442 -438.37890625 1979.17578125 C-438.51522461 1980.25472656 -438.51522461 1980.25472656 -438.65429688 1981.35546875 C-439.69796666 1984.92761689 -442.20874078 1986.29150427 -445.22265625 1988.30078125 C-445.86191992 1990.23296512 -445.86191992 1990.23296512 -446.06640625 1992.4765625 C-446.17855469 1993.30478516 -446.29070312 1994.13300781 -446.40625 1994.98632812 C-446.51066406 1995.85322266 -446.61507812 1996.72011719 -446.72265625 1997.61328125 C-448.04228439 2008.42282783 -448.04228439 2008.42282783 -451.22265625 2012.30078125 C-451.92390625 2012.57535156 -452.62515625 2012.84992188 -453.34765625 2013.1328125 C-453.96640625 2013.51824219 -454.58515625 2013.90367188 -455.22265625 2014.30078125 C-455.75061119 2016.9495552 -456.05871535 2019.31459799 -456.22265625 2021.98828125 C-456.61131146 2028.15532497 -457.69299076 2032.14253848 -461.22265625 2037.30078125 C-462.21265625 2037.96078125 -463.20265625 2038.62078125 -464.22265625 2039.30078125 C-464.85200023 2042.14157004 -465.33821861 2044.86449126 -465.72265625 2047.73828125 C-465.9299554 2049.28022861 -466.14830968 2050.82073929 -466.37890625 2052.359375 C-466.51522461 2053.38502563 -466.51522461 2053.38502563 -466.65429688 2054.43139648 C-467.36847774 2056.78040115 -468.32190976 2057.77047594 -470.22265625 2059.30078125 C-471.70765625 2059.79578125 -471.70765625 2059.79578125 -473.22265625 2060.30078125 C-473.320625 2061.27917969 -473.41859375 2062.25757812 -473.51953125 2063.265625 C-475.28985248 2078.78645852 -475.28985248 2078.78645852 -479.22265625 2084.30078125 C-480.70765625 2084.79578125 -480.70765625 2084.79578125 -482.22265625 2085.30078125 C-482.42761719 2086.42097656 -482.63257812 2087.54117188 -482.84375 2088.6953125 C-483.11577314 2090.16798949 -483.38791474 2091.64064461 -483.66015625 2093.11328125 C-483.79486328 2093.85126953 -483.92957031 2094.58925781 -484.06835938 2095.34960938 C-484.63685362 2098.41393201 -485.23575276 2101.34007078 -486.22265625 2104.30078125 C-489.28515625 2105.48828125 -489.28515625 2105.48828125 -492.22265625 2106.30078125 C-492.27873047 2107.47833984 -492.27873047 2107.47833984 -492.3359375 2108.6796875 C-492.7241697 2114.88379026 -493.33420583 2119.77505001 -496.22265625 2125.30078125 C-496.88265625 2125.30078125 -497.54265625 2125.30078125 -498.22265625 2125.30078125 C-498.55265625 2126.29078125 -498.88265625 2127.28078125 -499.22265625 2128.30078125 C-499.88265625 2128.30078125 -500.54265625 2128.30078125 -501.22265625 2128.30078125 C-501.33222656 2129.16960938 -501.44179687 2130.0384375 -501.5546875 2130.93359375 C-503.19842362 2142.88074894 -503.19842362 2142.88074894 -506.22265625 2147.30078125 C-506.88394531 2147.69007813 -507.54523438 2148.079375 -508.2265625 2148.48046875 C-511.10703747 2151.10728154 -511.2611535 2154.10814445 -511.78515625 2157.80078125 C-512.8093672 2164.73898443 -512.8093672 2164.73898443 -514.625 2167.20703125 C-516.22265625 2168.30078125 -516.22265625 2168.30078125 -519.22265625 2169.30078125 C-519.41601562 2170.34878906 -519.609375 2171.39679687 -519.80859375 2172.4765625 C-520.07125559 2173.85553718 -520.33429625 2175.23443974 -520.59765625 2176.61328125 C-520.72398438 2177.30357422 -520.8503125 2177.99386719 -520.98046875 2178.70507812 C-521.64379943 2182.13781439 -522.25763264 2184.35324583 -524.22265625 2187.30078125 C-526.84765625 2187.98828125 -526.84765625 2187.98828125 -529.22265625 2188.30078125 C-529.27873047 2189.26177734 -529.27873047 2189.26177734 -529.3359375 2190.2421875 C-529.76281202 2195.85851697 -530.36245343 2200.39757642 -533.22265625 2205.30078125 C-534.06054688 2205.58308594 -534.8984375 2205.86539063 -535.76171875 2206.15625 C-536.57382813 2206.53394531 -537.3859375 2206.91164063 -538.22265625 2207.30078125 C-539.15315067 2209.76042928 -539.15315067 2209.76042928 -539.34765625 2212.61328125 C-539.94300329 2216.82481029 -540.41176336 2219.94933203 -543.22265625 2223.30078125 C-543.88394531 2223.57664062 -544.54523438 2223.8525 -545.2265625 2224.13671875 C-547.4020401 2225.14400285 -547.4020401 2225.14400285 -548.1640625 2227.4296875 C-548.36902344 2228.23277344 -548.57398438 2229.03585938 -548.78515625 2229.86328125 C-549.4140625 2232.3046875 -549.4140625 2232.3046875 -550.22265625 2234.30078125 C-551.70765625 2234.79578125 -551.70765625 2234.79578125 -553.22265625 2235.30078125 C-554.52994848 2237.44220397 -555.36767988 2239.66281488 -556.30078125 2241.9921875 C-558.79581606 2248.10502279 -560.11010154 2250.51026714 -566.22265625 2253.30078125 C-567.11499199 2255.22525698 -567.11499199 2255.22525698 -567.72265625 2257.42578125 C-568.3671875 2259.55859375 -568.3671875 2259.55859375 -569.22265625 2261.30078125 C-572.41015625 2262.30078125 -572.41015625 2262.30078125 -575.22265625 2262.30078125 C-575.47015625 2263.57953125 -575.71765625 2264.85828125 -575.97265625 2266.17578125 C-576.94712137 2270.08746392 -576.94712137 2270.08746392 -579.16015625 2271.80078125 C-581.22265625 2272.30078125 -581.22265625 2272.30078125 -584.22265625 2272.30078125 C-584.62484375 2273.97140625 -584.62484375 2273.97140625 -585.03515625 2275.67578125 C-586.22265625 2279.30078125 -586.22265625 2279.30078125 -589.22265625 2281.30078125 C-590.54265625 2281.30078125 -591.86265625 2281.30078125 -593.22265625 2281.30078125 C-593.62484375 2282.97140625 -593.62484375 2282.97140625 -594.03515625 2284.67578125 C-595.22265625 2288.30078125 -595.22265625 2288.30078125 -598.22265625 2290.30078125 C-600.91015625 2290.42578125 -600.91015625 2290.42578125 -603.22265625 2290.30078125 C-603.28453125 2291.22890625 -603.34640625 2292.15703125 -603.41015625 2293.11328125 C-604.22265625 2296.30078125 -604.22265625 2296.30078125 -606.53515625 2298.11328125 C-609.22265625 2299.30078125 -609.22265625 2299.30078125 -611.34765625 2299.61328125 C-611.96640625 2299.84015625 -612.58515625 2300.06703125 -613.22265625 2300.30078125 C-613.80466797 2301.74324219 -613.80466797 2301.74324219 -614.3984375 2303.21484375 C-616.22265625 2306.30078125 -616.22265625 2306.30078125 -619.5078125 2307.5859375 C-620.75433594 2307.84246094 -622.00085937 2308.09898437 -623.28515625 2308.36328125 C-627.01292145 2309.04084982 -627.01292145 2309.04084982 -630.22265625 2310.30078125 C-631.57727186 2312.76666852 -631.57727186 2312.76666852 -632.22265625 2315.30078125 C-638.09059836 2318.56074909 -644.69502359 2318.41332664 -651.22265625 2318.30078125 C-651.22265625 2319.06390625 -651.22265625 2319.82703125 -651.22265625 2320.61328125 C-652.22265625 2323.30078125 -652.22265625 2323.30078125 -655.34765625 2325.05078125 C-671.77054848 2330.1684783 -700.67476402 2330.1684783 -717.09765625 2325.05078125 C-720.22265625 2323.30078125 -720.22265625 2323.30078125 -721.22265625 2320.61328125 C-721.22265625 2319.85015625 -721.22265625 2319.08703125 -721.22265625 2318.30078125 C-722.50140625 2318.34203125 -723.78015625 2318.38328125 -725.09765625 2318.42578125 C-731.74678249 2318.39436806 -738.47672968 2318.08488503 -743.84765625 2313.80078125 C-746.22265625 2311.30078125 -746.22265625 2311.30078125 -746.22265625 2309.30078125 C-746.90972656 2309.19121094 -747.59679688 2309.08164063 -748.3046875 2308.96875 C-749.20574219 2308.81019531 -750.10679688 2308.65164062 -751.03515625 2308.48828125 C-751.92847656 2308.33746094 -752.82179688 2308.18664063 -753.7421875 2308.03125 C-756.51526509 2307.2146114 -757.37780784 2306.46910993 -759.22265625 2304.30078125 C-762.21949605 2300.92854114 -764.4576333 2299.66221638 -768.78515625 2298.42578125 C-774.00531312 2296.68113173 -774.00531312 2296.68113173 -775.97265625 2293.23828125 C-776.38515625 2292.26890625 -776.79765625 2291.29953125 -777.22265625 2290.30078125 C-778.37765625 2289.80578125 -779.53265625 2289.31078125 -780.72265625 2288.80078125 C-785.06453109 2286.93997775 -785.18157938 2285.38293499 -787.22265625 2281.30078125 C-788.41890625 2280.80578125 -789.61515625 2280.31078125 -790.84765625 2279.80078125 C-791.96140625 2279.30578125 -793.07515625 2278.81078125 -794.22265625 2278.30078125 C-795.16015625 2275.11328125 -795.16015625 2275.11328125 -795.22265625 2272.30078125 C-797.10984375 2272.02234375 -797.10984375 2272.02234375 -799.03515625 2271.73828125 C-801.265625 2271.203125 -801.265625 2271.203125 -803.22265625 2270.30078125 C-804.29168564 2267.99825642 -805.29441442 2265.66357865 -806.22265625 2263.30078125 C-808.20154586 2262.57384221 -810.20220183 2261.90261874 -812.22265625 2261.30078125 C-813.86796041 2258.3841057 -814.22265625 2256.65357143 -814.22265625 2253.30078125 C-815.15078125 2253.23890625 -816.07890625 2253.17703125 -817.03515625 2253.11328125 C-820.22265625 2252.30078125 -820.22265625 2252.30078125 -822.03515625 2249.92578125 C-823.22265625 2247.30078125 -823.22265625 2247.30078125 -824.22265625 2244.30078125 C-825.17140625 2244.07390625 -826.12015625 2243.84703125 -827.09765625 2243.61328125 C-830.22265625 2242.30078125 -830.22265625 2242.30078125 -831.07421875 2240.50390625 C-831.5111741 2239.06142714 -831.94735614 2237.61871358 -832.3828125 2236.17578125 C-833.13790398 2233.95385099 -833.13790398 2233.95385099 -836.16015625 2232.86328125 C-840.21504352 2230.79446121 -840.62991289 2228.61303291 -842.22265625 2224.51171875 C-843.61189198 2221.44020539 -845.76772722 2219.56686958 -848.22265625 2217.30078125 C-851.10886776 2213.07454296 -851.10886776 2213.07454296 -851.53515625 2210.17578125 C-851.76203125 2209.55703125 -851.98890625 2208.93828125 -852.22265625 2208.30078125 C-853.17140625 2207.88828125 -854.12015625 2207.47578125 -855.09765625 2207.05078125 C-858.53889901 2205.1236853 -858.67664565 2204.81213274 -859.78515625 2201.30078125 C-859.95144531 2200.62015625 -860.11773438 2199.93953125 -860.2890625 2199.23828125 C-861.11600649 2197.05594287 -861.11600649 2197.05594287 -863.66796875 2195.89453125 C-866.88451566 2193.88787813 -867.37357031 2192.35724191 -868.53515625 2188.80078125 C-869.02435547 2187.3621875 -869.02435547 2187.3621875 -869.5234375 2185.89453125 C-870.22265625 2183.30078125 -870.22265625 2183.30078125 -870.22265625 2180.30078125 C-871.61484375 2180.05328125 -871.61484375 2180.05328125 -873.03515625 2179.80078125 C-876.57247208 2178.13616204 -876.80213019 2177.75551741 -878.09765625 2174.30078125 C-878.77947464 2172.16911916 -879.22265625 2170.53954918 -879.22265625 2168.30078125 C-879.82078125 2168.23890625 -880.41890625 2168.17703125 -881.03515625 2168.11328125 C-884.20898134 2166.93443193 -884.7785213 2165.32033616 -886.22265625 2162.30078125 C-887.53283206 2158.37025383 -888.22265625 2155.46067529 -888.22265625 2151.30078125 C-889.15078125 2151.30078125 -890.07890625 2151.30078125 -891.03515625 2151.30078125 C-892.08703125 2150.97078125 -893.13890625 2150.64078125 -894.22265625 2150.30078125 C-895.50043762 2147.55591756 -896.38896002 2145.17012841 -897.22265625 2142.30078125 C-898.68568112 2138.37721456 -899.67430833 2135.82171178 -902.72265625 2132.92578125 C-905.22306142 2130.30035582 -905.70771884 2129.26213003 -906.66015625 2125.92578125 C-907.65983565 2122.44413919 -908.77427849 2120.40869777 -911.28515625 2117.80078125 C-914.45147071 2114.4792553 -914.93760428 2111.66091821 -915.66796875 2107.2265625 C-916.51328209 2104.29177744 -918.64554468 2103.74647798 -921.22265625 2102.30078125 C-924.26915444 2097.11551699 -924.82721644 2091.19147082 -925.22265625 2085.30078125 C-926.16238281 2085.11902344 -926.16238281 2085.11902344 -927.12109375 2084.93359375 C-929.22265625 2084.30078125 -929.22265625 2084.30078125 -930.84765625 2082.17578125 C-933.17643455 2077.30651753 -934.55125934 2072.72273215 -934.22265625 2067.30078125 C-935.36734375 2067.02234375 -935.36734375 2067.02234375 -936.53515625 2066.73828125 C-939.58830785 2065.10520016 -940.34737366 2063.74696953 -941.5546875 2060.55859375 C-942.36125634 2057.83229674 -942.93283274 2055.079129 -943.53515625 2052.30078125 C-944.47386975 2048.24633785 -945.22319288 2045.87492222 -948.28515625 2043.05078125 C-953.2957885 2038.11474898 -952.76158576 2029.9227074 -953.22265625 2023.30078125 C-954.40601563 2023.14029297 -954.40601563 2023.14029297 -955.61328125 2022.9765625 C-958.22265625 2022.30078125 -958.22265625 2022.30078125 -959.97265625 2019.48828125 C-961.88739221 2014.31741239 -961.96278175 2008.75814575 -962.22265625 2003.30078125 C-963.0115625 2003.19507812 -963.80046875 2003.089375 -964.61328125 2002.98046875 C-967.22265625 2002.30078125 -967.22265625 2002.30078125 -968.97265625 1999.42578125 C-970.76806363 1994.56702342 -970.95357618 1989.43185991 -971.22265625 1984.30078125 C-972.0115625 1984.19636719 -972.80046875 1984.09195313 -973.61328125 1983.984375 C-976.22265625 1983.30078125 -976.22265625 1983.30078125 -977.97265625 1980.36328125 C-979.64767019 1975.82087055 -979.94257176 1971.10084994 -980.22265625 1966.30078125 C-980.98578125 1966.09453125 -981.74890625 1965.88828125 -982.53515625 1965.67578125 C-986.22120992 1963.78989333 -986.77349572 1962.16520934 -988.22265625 1958.30078125 C-988.53196408 1956.59555373 -988.82257086 1954.88686285 -989.09765625 1953.17578125 C-989.93935095 1948.42268178 -991.30900186 1947.1644308 -995.22265625 1944.30078125 C-997.99985218 1939.29049309 -998.72011268 1933.92926924 -999.22265625 1928.30078125 C-999.83753906 1928.20796875 -1000.45242188 1928.11515625 -1001.0859375 1928.01953125 C-1003.22265625 1927.30078125 -1003.22265625 1927.30078125 -1004.453125 1925.76953125 C-1006.95603168 1920.62069465 -1007.95815909 1916.01391987 -1008.22265625 1910.30078125 C-1008.98578125 1910.11515625 -1009.74890625 1909.92953125 -1010.53515625 1909.73828125 C-1013.63462934 1908.08042355 -1014.39332331 1906.60603251 -1015.6171875 1903.3671875 C-1016.26675807 1901.150266 -1016.68420473 1898.94786805 -1017.09765625 1896.67578125 C-1017.99591695 1892.19202615 -1019.94910894 1890.49448594 -1023.22265625 1887.30078125 C-1025.31609951 1882.81718623 -1026.70521568 1878.28722874 -1026.22265625 1873.30078125 C-1026.82078125 1873.05328125 -1027.41890625 1872.80578125 -1028.03515625 1872.55078125 C-1031.85389364 1870.3686456 -1033.0298619 1867.98694698 -1034.21484375 1863.76953125 C-1034.67142036 1861.78044534 -1035.10011209 1859.78873592 -1035.5078125 1857.7890625 C-1036.6335146 1852.96874837 -1038.21499194 1851.09011561 -1042.22265625 1848.30078125 C-1043.42984823 1845.56871519 -1044.10448233 1842.99414862 -1044.60546875 1840.0546875 C-1045.33154734 1835.03664693 -1045.33154734 1835.03664693 -1048.66015625 1831.48828125 C-1052.88170688 1827.88451852 -1053.36141312 1822.62928552 -1054.22265625 1817.30078125 C-1054.26560896 1815.63466816 -1054.28093857 1813.96642856 -1054.22265625 1812.30078125 C-1055.17140625 1812.07390625 -1056.12015625 1811.84703125 -1057.09765625 1811.61328125 C-1060.22265625 1810.30078125 -1060.22265625 1810.30078125 -1061.37890625 1808.11328125 C-1062.30631607 1805.02191518 -1062.63547391 1802.20638009 -1062.84765625 1798.98828125 C-1062.92242188 1797.91964844 -1062.9971875 1796.85101562 -1063.07421875 1795.75 C-1063.12320312 1794.94175781 -1063.1721875 1794.13351562 -1063.22265625 1793.30078125 C-1064.17140625 1793.05328125 -1065.12015625 1792.80578125 -1066.09765625 1792.55078125 C-1069.22265625 1791.30078125 -1069.22265625 1791.30078125 -1070.37890625 1789.64453125 C-1071.47733201 1786.59334858 -1071.65367889 1783.78373726 -1071.84765625 1780.55078125 C-1071.92242188 1779.3803125 -1071.9971875 1778.20984375 -1072.07421875 1777.00390625 C-1072.12320312 1776.111875 -1072.1721875 1775.21984375 -1072.22265625 1774.30078125 C-1073.65158203 1773.93339844 -1073.65158203 1773.93339844 -1075.109375 1773.55859375 C-1078.22265625 1772.30078125 -1078.22265625 1772.30078125 -1079.4296875 1770.41796875 C-1079.62949219 1769.67804688 -1079.82929687 1768.938125 -1080.03515625 1768.17578125 C-1080.26074219 1767.3765625 -1080.48632812 1766.57734375 -1080.71875 1765.75390625 C-1081.19043791 1763.45762711 -1081.42902717 1761.26064543 -1081.59765625 1758.92578125 C-1081.90703125 1757.13140625 -1081.90703125 1757.13140625 -1082.22265625 1755.30078125 C-1083.86599129 1754.26288544 -1085.53509492 1753.26510201 -1087.22265625 1752.30078125 C-1090.27203802 1747.11931141 -1090.82737472 1741.18911304 -1091.22265625 1735.30078125 C-1091.83882812 1735.21828125 -1092.455 1735.13578125 -1093.08984375 1735.05078125 C-1095.22265625 1734.30078125 -1095.22265625 1734.30078125 -1096.41796875 1732.55078125 C-1098.05484906 1728.58925579 -1099.37025588 1724.90925143 -1100.09765625 1720.67578125 C-1100.75810829 1717.20692054 -1101.64783551 1715.57621976 -1104.16015625 1713.11328125 C-1107.42088847 1709.77397717 -1107.93197822 1706.72573088 -1108.72265625 1702.17578125 C-1109.56099833 1696.45842001 -1109.56099833 1696.45842001 -1113.28515625 1692.42578125 C-1116.77689178 1689.89984491 -1117.21176052 1688.51423386 -1117.98828125 1684.4375 C-1118.36223566 1681.02828234 -1118.34506574 1677.72824685 -1118.22265625 1674.30078125 C-1119.15078125 1674.15640625 -1120.07890625 1674.01203125 -1121.03515625 1673.86328125 C-1124.60983975 1672.11098542 -1124.8093205 1671.73683409 -1126.03515625 1668.17578125 C-1126.92040537 1665.05729004 -1127.34388788 1662.15343492 -1127.53515625 1658.92578125 C-1127.76203125 1657.72953125 -1127.98890625 1656.53328125 -1128.22265625 1655.30078125 C-1130.19681893 1654.25069472 -1132.19848491 1653.25090249 -1134.22265625 1652.30078125 C-1135.54438272 1649.15381345 -1136.16555262 1646.39311844 -1136.34375 1642.984375 C-1136.47051737 1640.65262376 -1136.61018088 1638.55680564 -1137.22265625 1636.30078125 C-1140.11054266 1634.06993648 -1140.11054266 1634.06993648 -1143.22265625 1632.30078125 C-1145.69957027 1627.34695321 -1145.81292679 1621.75665252 -1146.22265625 1616.30078125 C-1146.82078125 1616.21828125 -1147.41890625 1616.13578125 -1148.03515625 1616.05078125 C-1150.96091427 1615.04766421 -1151.69663599 1613.97910252 -1153.22265625 1611.30078125 C-1154.07844726 1607.9520338 -1154.6735265 1604.60094151 -1155.28125 1601.19921875 C-1155.90866223 1598.19504618 -1155.90866223 1598.19504618 -1158.21484375 1597.08984375 C-1158.87742187 1596.82945313 -1159.54 1596.5690625 -1160.22265625 1596.30078125 C-1163.31414112 1590.80480816 -1163.85896118 1585.53376227 -1164.22265625 1579.30078125 C-1165.36734375 1578.99140625 -1165.36734375 1578.99140625 -1166.53515625 1578.67578125 C-1170.19601132 1576.80278563 -1170.76418772 1575.12057977 -1172.22265625 1571.30078125 C-1172.52933949 1569.76203145 -1172.82034143 1568.22009406 -1173.09765625 1566.67578125 C-1173.98033485 1562.21788344 -1175.59474014 1561.04383978 -1179.22265625 1558.30078125 C-1181.16324463 1554.64930678 -1182.14779298 1551.09433186 -1182.53515625 1546.98828125 C-1182.76203125 1546.10140625 -1182.98890625 1545.21453125 -1183.22265625 1544.30078125 C-1185.21411016 1543.28386861 -1187.21452699 1542.28435477 -1189.22265625 1541.30078125 C-1190.53717431 1538.54029333 -1191.11063551 1535.98676395 -1191.6015625 1532.98046875 C-1192.01419356 1530.66824786 -1192.41140097 1528.5066664 -1193.22265625 1526.30078125 C-1194.88338474 1525.61945674 -1196.55042325 1524.95335998 -1198.22265625 1524.30078125 C-1200.46932824 1519.94011474 -1201.69817048 1515.21442832 -1201.22265625 1510.30078125 C-1202.36734375 1509.92953125 -1202.36734375 1509.92953125 -1203.53515625 1509.55078125 C-1206.60304117 1508.12385803 -1207.62272921 1507.26064627 -1209.22265625 1504.30078125 C-1209.91015625 1500.55078125 -1209.91015625 1500.55078125 -1210.22265625 1497.30078125 C-1211.15980469 1497.25566406 -1212.09695313 1497.21054688 -1213.0625 1497.1640625 C-1216.22265625 1496.30078125 -1216.22265625 1496.30078125 -1217.7265625 1493.71875 C-1218.07589844 1492.65269531 -1218.42523437 1491.58664062 -1218.78515625 1490.48828125 C-1220.45966536 1485.45248646 -1222.07795674 1483.52886452 -1226.22265625 1480.30078125 C-1227.15625 1478.046875 -1227.15625 1478.046875 -1227.66015625 1475.73828125 C-1228.27982562 1473.3627423 -1228.27982562 1473.3627423 -1229.22265625 1471.30078125 C-1231.18881286 1470.23577975 -1233.18992551 1469.23244951 -1235.22265625 1468.30078125 C-1236.22265625 1465.96744792 -1237.22265625 1463.63411458 -1238.22265625 1461.30078125 C-1240.20585643 1460.26786449 -1242.20613431 1459.26703135 -1244.22265625 1458.30078125 C-1247.22265625 1453.40078125 -1247.22265625 1453.40078125 -1247.22265625 1450.30078125 C-1247.83367188 1450.20410156 -1248.4446875 1450.10742188 -1249.07421875 1450.0078125 C-1251.70321467 1449.14263384 -1252.18991418 1448.31954205 -1253.59765625 1445.98828125 C-1255.96239527 1442.40467984 -1258.62039374 1440.65008289 -1262.22265625 1438.30078125 C-1262.71765625 1437.45515625 -1263.21265625 1436.60953125 -1263.72265625 1435.73828125 C-1265.08898441 1433.03801538 -1265.08898441 1433.03801538 -1268.22265625 1431.80078125 C-1271.72938334 1430.04741771 -1272.2568317 1428.57715549 -1274.22265625 1425.30078125 C-1276.19788471 1424.25270084 -1278.19747134 1423.24874015 -1280.22265625 1422.30078125 C-1282.22265625 1419.30078125 -1282.22265625 1419.30078125 -1282.22265625 1416.30078125 C-1285.19265625 1415.31078125 -1288.16265625 1414.32078125 -1291.22265625 1413.30078125 C-1291.55265625 1411.32078125 -1291.88265625 1409.34078125 -1292.22265625 1407.30078125 C-1292.81433594 1407.2028125 -1293.40601563 1407.10484375 -1294.015625 1407.00390625 C-1299.88521043 1405.89318535 -1303.50410418 1404.35028748 -1307.5703125 1399.7890625 C-1309.52796201 1398.02578954 -1311.32397492 1397.34213542 -1313.78515625 1396.42578125 C-1316.2265625 1395.40625 -1316.2265625 1395.40625 -1318.22265625 1394.30078125 C-1318.55265625 1393.45515625 -1318.88265625 1392.60953125 -1319.22265625 1391.73828125 C-1319.55265625 1390.93390625 -1319.88265625 1390.12953125 -1320.22265625 1389.30078125 C-1322.41880287 1388.40235763 -1324.64446931 1387.81547952 -1326.9296875 1387.1796875 C-1329.42451008 1386.22340968 -1330.44151711 1385.30503951 -1332.16015625 1383.30078125 C-1335.25264107 1379.76527192 -1338.56926035 1379.20334969 -1343.0078125 1378.08203125 C-1345.22265625 1377.30078125 -1345.22265625 1377.30078125 -1347.34765625 1374.73828125 C-1348.22265625 1372.30078125 -1348.22265625 1372.30078125 -1348.22265625 1370.30078125 C-1349.07537109 1370.24470703 -1349.07537109 1370.24470703 -1349.9453125 1370.1875 C-1355.27081566 1369.73407653 -1359.57040699 1369.01459332 -1364.22265625 1366.30078125 C-1364.91015625 1363.69140625 -1364.91015625 1363.69140625 -1365.22265625 1361.30078125 C-1365.95871094 1361.19121094 -1366.69476562 1361.08164063 -1367.453125 1360.96875 C-1377.77093039 1359.292277 -1377.77093039 1359.292277 -1381.22265625 1356.30078125 C-1381.83984375 1354.19921875 -1381.83984375 1354.19921875 -1382.22265625 1352.30078125 C-1382.94710937 1352.2028125 -1383.6715625 1352.10484375 -1384.41796875 1352.00390625 C-1390.35522899 1351.08561 -1394.60099639 1350.21141652 -1399.22265625 1346.30078125 C-1399.88265625 1345.31078125 -1400.54265625 1344.32078125 -1401.22265625 1343.30078125 C-1403.92988476 1342.42453637 -1403.92988476 1342.42453637 -1407.03515625 1341.86328125 C-1411.67619613 1340.80597001 -1414.87724228 1339.87691343 -1418.22265625 1336.30078125 C-1418.55265625 1335.64078125 -1418.88265625 1334.98078125 -1419.22265625 1334.30078125 C-1421.10150018 1333.79527581 -1423.00246101 1333.37075889 -1424.91015625 1332.98828125 C-1430.34563997 1331.71849006 -1433.44133175 1330.39721613 -1437.22265625 1326.30078125 C-1437.22265625 1325.64078125 -1437.22265625 1324.98078125 -1437.22265625 1324.30078125 C-1438.16625 1324.27951172 -1438.16625 1324.27951172 -1439.12890625 1324.2578125 C-1445.36293159 1323.91043458 -1450.59744283 1322.77095958 -1455.22265625 1318.30078125 C-1455.22265625 1317.31078125 -1455.22265625 1316.32078125 -1455.22265625 1315.30078125 C-1456.10308594 1315.19121094 -1456.98351563 1315.08164063 -1457.890625 1314.96875 C-1459.05207031 1314.81019531 -1460.21351563 1314.65164063 -1461.41015625 1314.48828125 C-1462.55871094 1314.33746094 -1463.70726562 1314.18664063 -1464.890625 1314.03125 C-1469.18772035 1313.08921386 -1472.14557616 1311.88283385 -1474.6640625 1308.18359375 C-1476.88493349 1305.50073707 -1478.76152272 1305.5706781 -1482.16015625 1305.17578125 C-1489.34293786 1304.30352276 -1489.34293786 1304.30352276 -1492.22265625 1302.30078125 C-1492.67898438 1301.45773437 -1493.1353125 1300.6146875 -1493.60546875 1299.74609375 C-1495.01768379 1297.04291842 -1495.01768379 1297.04291842 -1497.96484375 1296.48046875 C-1498.99867188 1296.37992188 -1500.0325 1296.279375 -1501.09765625 1296.17578125 C-1505.56915427 1295.71630401 -1508.57468698 1295.01539622 -1512.22265625 1292.30078125 C-1513.03515625 1289.61328125 -1513.03515625 1289.61328125 -1513.22265625 1287.30078125 C-1514.35703125 1287.36265625 -1515.49140625 1287.42453125 -1516.66015625 1287.48828125 C-1521.47455842 1287.46253578 -1526.00490432 1286.72487867 -1530.22265625 1284.30078125 C-1531.78515625 1281.11328125 -1531.78515625 1281.11328125 -1532.22265625 1278.30078125 C-1533.35703125 1278.36265625 -1534.49140625 1278.42453125 -1535.66015625 1278.48828125 C-1540.44834153 1278.47127171 -1545.00126692 1277.62571936 -1549.22265625 1275.30078125 C-1549.82335938 1274.47449219 -1550.4240625 1273.64820313 -1551.04296875 1272.796875 C-1553.92235601 1269.49951218 -1556.08527204 1269.28045871 -1560.34765625 1268.55078125 C-1567.15793133 1267.33314371 -1567.15793133 1267.33314371 -1569.22265625 1266.30078125 C-1569.22265625 1265.64078125 -1569.22265625 1264.98078125 -1569.22265625 1264.30078125 C-1569.82078125 1264.01203125 -1570.41890625 1263.72328125 -1571.03515625 1263.42578125 C-1573.22265625 1262.30078125 -1573.22265625 1262.30078125 -1576.22265625 1260.30078125 C-1577.81456883 1259.93088762 -1579.42168681 1259.62351826 -1581.03515625 1259.36328125 C-1585.1971971 1258.57948086 -1588.62299183 1257.64056312 -1592.22265625 1255.30078125 C-1592.4959375 1254.62917969 -1592.76921875 1253.95757813 -1593.05078125 1253.265625 C-1594.07088638 1251.05362217 -1594.07088638 1251.05362217 -1596.61328125 1250.578125 C-1597.556875 1250.46597656 -1598.50046875 1250.35382813 -1599.47265625 1250.23828125 C-1603.90527598 1249.57019309 -1607.4248235 1248.83266975 -1611.22265625 1246.30078125 C-1611.44953125 1245.63949219 -1611.67640625 1244.97820312 -1611.91015625 1244.296875 C-1613.15966532 1241.92045496 -1613.15966532 1241.92045496 -1616.59375 1241.359375 C-1617.94646081 1241.13502944 -1619.30224278 1240.92861907 -1620.66015625 1240.73828125 C-1627.63049689 1239.71614048 -1627.63049689 1239.71614048 -1630.1328125 1237.9609375 C-1631.3603486 1236.09103484 -1631.84416783 1234.49601407 -1632.22265625 1232.30078125 C-1632.94710938 1232.25179688 -1633.6715625 1232.2028125 -1634.41796875 1232.15234375 C-1645.52158863 1231.29366381 -1645.52158863 1231.29366381 -1649.22265625 1229.30078125 C-1650.59765625 1226.17578125 -1650.59765625 1226.17578125 -1651.22265625 1223.30078125 C-1652.30933594 1223.24470703 -1652.30933594 1223.24470703 -1653.41796875 1223.1875 C-1663.91670724 1222.47358578 -1663.91670724 1222.47358578 -1668.22265625 1219.30078125 C-1668.87109375 1216.69140625 -1668.87109375 1216.69140625 -1669.22265625 1214.30078125 C-1670.41761719 1214.24470703 -1670.41761719 1214.24470703 -1671.63671875 1214.1875 C-1682.72028658 1213.49983338 -1682.72028658 1213.49983338 -1687.22265625 1210.30078125 C-1687.50496094 1209.62789062 -1687.78726562 1208.955 -1688.078125 1208.26171875 C-1689.05368799 1206.09734093 -1689.05368799 1206.09734093 -1691.359375 1205.578125 C-1692.20113281 1205.46597656 -1693.04289062 1205.35382813 -1693.91015625 1205.23828125 C-1698.47868682 1204.48348055 -1702.1258025 1203.47995878 -1706.22265625 1201.30078125 C-1706.55265625 1200.31078125 -1706.88265625 1199.32078125 -1707.22265625 1198.30078125 C-1710.41741203 1196.18594292 -1713.88223458 1195.66193706 -1717.59765625 1194.92578125 C-1722.67126886 1193.79577529 -1726.36770456 1192.82530851 -1730.22265625 1189.30078125 C-1730.22265625 1188.31078125 -1730.22265625 1187.32078125 -1730.22265625 1186.30078125 C-1731.30933594 1186.24470703 -1731.30933594 1186.24470703 -1732.41796875 1186.1875 C-1738.95829307 1185.74275795 -1743.90890199 1185.06224313 -1749.09765625 1180.73828125 C-1750.22265625 1179.30078125 -1750.22265625 1179.30078125 -1750.22265625 1177.30078125 C-1751.10308594 1177.19121094 -1751.98351563 1177.08164063 -1752.890625 1176.96875 C-1754.05207031 1176.81019531 -1755.21351563 1176.65164063 -1756.41015625 1176.48828125 C-1757.55871094 1176.33746094 -1758.70726562 1176.18664063 -1759.890625 1176.03125 C-1763.31126357 1175.2813562 -1765.47283018 1174.45740901 -1768.22265625 1172.30078125 C-1769.03515625 1170.11328125 -1769.03515625 1170.11328125 -1769.22265625 1168.30078125 C-1770.10308594 1168.19121094 -1770.98351563 1168.08164063 -1771.890625 1167.96875 C-1773.05207031 1167.81019531 -1774.21351563 1167.65164063 -1775.41015625 1167.48828125 C-1776.55871094 1167.33746094 -1777.70726562 1167.18664063 -1778.890625 1167.03125 C-1782.31703454 1166.28009105 -1784.4422599 1165.41941364 -1787.22265625 1163.30078125 C-1787.53589844 1162.60210938 -1787.84914063 1161.9034375 -1788.171875 1161.18359375 C-1789.10063654 1158.99941091 -1789.10063654 1158.99941091 -1791.8671875 1158.54296875 C-1792.91261719 1158.42179687 -1793.95804688 1158.300625 -1795.03515625 1158.17578125 C-1802.7856044 1157.23224843 -1802.7856044 1157.23224843 -1806.22265625 1155.30078125 C-1806.50238281 1154.46804688 -1806.78210937 1153.6353125 -1807.0703125 1152.77734375 C-1807.45058594 1151.96007813 -1807.83085938 1151.1428125 -1808.22265625 1150.30078125 C-1810.8261537 1149.49831274 -1812.99589685 1149.01664605 -1815.66015625 1148.67578125 C-1822.63423159 1147.69927874 -1822.63423159 1147.69927874 -1825.1953125 1145.96484375 C-1826.22265625 1144.30078125 -1826.22265625 1144.30078125 -1826.22265625 1140.30078125 C-1827.33640625 1140.36265625 -1828.45015625 1140.42453125 -1829.59765625 1140.48828125 C-1834.6462851 1140.47028257 -1839.71698094 1139.64565313 -1844.22265625 1137.30078125 C-1844.67511719 1136.46804688 -1845.12757813 1135.6353125 -1845.59375 1134.77734375 C-1847.04682168 1131.99078575 -1847.04682168 1131.99078575 -1850.33203125 1131.3671875 C-1852.13414062 1131.11775391 -1852.13414062 1131.11775391 -1853.97265625 1130.86328125 C-1861.67104004 1129.4849338 -1861.67104004 1129.4849338 -1864.53515625 1126.36328125 C-1868.48684745 1122.21657152 -1873.85117062 1121.69924376 -1879.27075195 1120.68188477 C-1884.7812539 1119.61301353 -1884.7812539 1119.61301353 -1887.23828125 1117.875 C-1888.22265625 1116.30078125 -1888.22265625 1116.30078125 -1888.22265625 1113.30078125 C-1889.24746094 1113.17960937 -1890.27226563 1113.0584375 -1891.328125 1112.93359375 C-1892.68884604 1112.76467666 -1894.04952075 1112.59538605 -1895.41015625 1112.42578125 C-1896.42045898 1112.30783203 -1896.42045898 1112.30783203 -1897.45117188 1112.1875 C-1904.87722076 1111.24565965 -1904.87722076 1111.24565965 -1908.22265625 1109.30078125 C-1908.52429687 1108.45902344 -1908.8259375 1107.61726563 -1909.13671875 1106.75 C-1909.49507812 1105.94175781 -1909.8534375 1105.13351562 -1910.22265625 1104.30078125 C-1913.17795658 1103.32843013 -1913.17795658 1103.32843013 -1916.59765625 1103.11328125 C-1924.39516834 1102.31240811 -1924.39516834 1102.31240811 -1927.22265625 1100.30078125 C-1927.65835938 1099.46417969 -1928.0940625 1098.62757812 -1928.54296875 1097.765625 C-1930.05669539 1094.98441392 -1930.05669539 1094.98441392 -1933.40234375 1094.3671875 C-1935.23152344 1094.11775391 -1935.23152344 1094.11775391 -1937.09765625 1093.86328125 C-1943.49625929 1092.72067356 -1945.19010206 1091.39453391 -1949.22265625 1086.30078125 C-1952.28946927 1085.27710603 -1955.30180741 1084.62168497 -1958.48046875 1084.0390625 C-1961.37845862 1083.25883446 -1962.45384399 1082.67653889 -1964.22265625 1080.30078125 C-1964.55265625 1079.31078125 -1964.88265625 1078.32078125 -1965.22265625 1077.30078125 C-1968.74556675 1076.19705609 -1972.29675222 1075.44474178 -1975.90234375 1074.65625 C-1980.08352034 1072.94934615 -1980.42203549 1071.29507862 -1982.22265625 1067.30078125 C-1984.24808433 1066.27202922 -1984.24808433 1066.27202922 -1986.53515625 1066.11328125 C-1990.57320933 1065.44904125 -1993.71200227 1064.52704963 -1997.22265625 1062.30078125 C-1997.65771484 1061.31851562 -1997.65771484 1061.31851562 -1998.1015625 1060.31640625 C-1999.57871223 1057.66062486 -2000.88984665 1057.39151179 -2003.72265625 1056.42578125 C-2006.19140625 1055.44140625 -2006.19140625 1055.44140625 -2008.22265625 1054.30078125 C-2008.55265625 1053.26953125 -2008.88265625 1052.23828125 -2009.22265625 1051.17578125 C-2009.55265625 1050.22703125 -2009.88265625 1049.27828125 -2010.22265625 1048.30078125 C-2012.56300337 1047.48232337 -2014.76706841 1047.11545179 -2017.2265625 1046.8203125 C-2018.21462891 1046.56314453 -2018.21462891 1046.56314453 -2019.22265625 1046.30078125 C-2019.71765625 1044.81578125 -2019.71765625 1044.81578125 -2020.22265625 1043.30078125 C-2021.98606794 1042.20417655 -2021.98606794 1042.20417655 -2024.22265625 1041.30078125 C-2034.88305374 1036.23021969 -2034.88305374 1036.23021969 -2036.41015625 1032.05078125 C-2036.81234375 1030.68953125 -2036.81234375 1030.68953125 -2037.22265625 1029.30078125 C-2039.26762733 1028.60877368 -2041.28485264 1028.29000795 -2043.41015625 1027.921875 C-2044.00828125 1027.71691406 -2044.60640625 1027.51195312 -2045.22265625 1027.30078125 C-2045.90204799 1025.30506802 -2046.56827184 1023.30483352 -2047.22265625 1021.30078125 C-2049.06020154 1020.38725679 -2049.06020154 1020.38725679 -2051.22265625 1019.80078125 C-2053.40625 1019.14453125 -2053.40625 1019.14453125 -2055.22265625 1018.30078125 C-2055.92646782 1016.31354857 -2056.59383735 1014.31300172 -2057.22265625 1012.30078125 C-2060.67747325 1010.57009854 -2060.67747325 1010.57009854 -2064.22265625 1009.30078125 C-2066.22265625 1006.30078125 -2066.22265625 1006.30078125 -2066.22265625 1002.30078125 C-2067.61484375 1002.17703125 -2067.61484375 1002.17703125 -2069.03515625 1002.05078125 C-2072.22265625 1001.30078125 -2072.22265625 1001.30078125 -2074.09765625 999.48828125 C-2075.22265625 997.30078125 -2075.22265625 997.30078125 -2075.22265625 993.30078125 C-2076.33640625 993.05328125 -2077.45015625 992.80578125 -2078.59765625 992.55078125 C-2082.22265625 991.30078125 -2082.22265625 991.30078125 -2083.66015625 989.42578125 C-2084.22265625 987.30078125 -2084.22265625 987.30078125 -2084.22265625 983.30078125 C-2085.15078125 983.23890625 -2086.07890625 983.17703125 -2087.03515625 983.11328125 C-2090.22265625 982.30078125 -2090.22265625 982.30078125 -2092.03515625 979.92578125 C-2093.22265625 977.30078125 -2093.22265625 977.30078125 -2094.22265625 974.30078125 C-2095.15078125 973.95015625 -2096.07890625 973.59953125 -2097.03515625 973.23828125 C-2101.22457786 970.69177007 -2101.65694486 968.23156045 -2103.21875 963.7421875 C-2104.55818751 960.48480055 -2106.58970872 958.58728832 -2109.22265625 956.30078125 C-2111.78882257 952.45153177 -2111.77363301 949.86585085 -2112.22265625 945.30078125 C-2112.98578125 945.25953125 -2113.74890625 945.21828125 -2114.53515625 945.17578125 C-2117.22265625 944.30078125 -2117.22265625 944.30078125 -2118.97265625 941.92578125 C-2120.64130417 937.08670227 -2120.96010374 932.38886775 -2121.22265625 927.30078125 C-2122.15078125 927.15640625 -2123.07890625 927.01203125 -2124.03515625 926.86328125 C-2127.45906372 925.18489523 -2127.77781019 924.95782178 -2129.03515625 921.61328125 C-2130.62745293 916.03569345 -2130.58619197 910.31738783 -2130.62109375 904.55859375 C-2130.86731812 901.12661932 -2130.86731812 901.12661932 -2133.68359375 899.51953125 C-2134.52148438 899.11734375 -2135.359375 898.71515625 -2136.22265625 898.30078125 C-2140.54015413 889.23403571 -2139.40896274 877.7918927 -2139.40795898 867.95507812 C-2139.41013857 865.57012893 -2139.42832639 863.1856486 -2139.44726562 860.80078125 C-2139.54174301 836.02163331 -2139.54174301 836.02163331 -2134.66015625 831.05078125 C-2133.45359375 830.18453125 -2133.45359375 830.18453125 -2132.22265625 829.30078125 C-2130.42223219 827.50035719 -2130.88203757 824.98734445 -2130.67773438 822.57226562 C-2130.00725141 814.94153089 -2129.27656921 809.3654768 -2124.22265625 803.30078125 C-2123.56265625 802.97078125 -2122.90265625 802.64078125 -2122.22265625 802.30078125 C-2121.74545408 800.75569373 -2121.33988636 799.18813344 -2120.97265625 797.61328125 C-2119.69915231 793.04288893 -2118.22788705 790.96666098 -2114.6953125 787.9375 C-2112.80150713 785.83271366 -2112.14243845 783.78026479 -2111.22265625 781.11328125 C-2109.5811666 776.49101123 -2109.5811666 776.49101123 -2106.16015625 774.67578125 C-2105.19078125 774.22203125 -2104.22140625 773.76828125 -2103.22265625 773.30078125 C-2102.36195672 771.40659554 -2102.36195672 771.40659554 -2101.78515625 769.23828125 C-2101.14453125 767.109375 -2101.14453125 767.109375 -2100.22265625 765.30078125 C-2096.53515625 763.80078125 -2096.53515625 763.80078125 -2093.22265625 763.30078125 C-2093.16078125 762.37265625 -2093.09890625 761.44453125 -2093.03515625 760.48828125 C-2092.22265625 757.30078125 -2092.22265625 757.30078125 -2089.84765625 755.42578125 C-2087.22265625 754.30078125 -2087.22265625 754.30078125 -2084.22265625 754.30078125 C-2084.09890625 753.53765625 -2083.97515625 752.77453125 -2083.84765625 751.98828125 C-2083.22265625 749.30078125 -2083.22265625 749.30078125 -2081.22265625 746.30078125 C-2080.25328125 746.03265625 -2079.28390625 745.76453125 -2078.28515625 745.48828125 C-2074.96363275 744.6026255 -2074.96363275 744.6026255 -2073.84765625 741.42578125 C-2071.8071828 737.50179385 -2069.96450364 736.99916044 -2066.05859375 735.29296875 C-2063.98320423 734.38196175 -2063.98320423 734.38196175 -2062.84765625 731.86328125 C-2060.56334698 728.26110125 -2057.58746206 727.374571 -2053.78125 725.62890625 C-2051.30570714 724.34389163 -2049.56278114 723.00757026 -2047.53515625 721.11328125 C-2044.97949447 718.73283033 -2044.0461871 718.25078166 -2040.47265625 717.23828125 C-2036.39656759 716.06248644 -2036.288366 714.82970207 -2034.22265625 711.30078125 C-2030.65983794 709.45085636 -2027.38089736 708.33770418 -2023.47265625 707.42578125 C-2020.06351257 706.64745271 -2020.06351257 706.64745271 -2018.84765625 703.86328125 C-2016.3310817 699.89483678 -2012.60633262 699.46776677 -2008.22265625 698.30078125 C-2004.8876632 697.4690816 -2004.8876632 697.4690816 -2002.22265625 696.30078125 C-2001.52328093 694.98431006 -2000.85536492 693.65055974 -2000.22265625 692.30078125 C-1996.1841812 690.21398559 -1992.40645939 689.9279104 -1987.91015625 689.67578125 C-1986.65589844 689.60101562 -1985.40164063 689.52625 -1984.109375 689.44921875 C-1983.15675781 689.40023437 -1982.20414063 689.35125 -1981.22265625 689.30078125 C-1981.11695313 688.51058594 -1981.01125 687.72039063 -1980.90234375 686.90625 C-1980.22265625 684.30078125 -1980.22265625 684.30078125 -1977.34765625 682.61328125 C-1974.1432874 681.41495323 -1970.9746139 680.92319798 -1967.59765625 680.42578125 C-1962.54656323 679.60798524 -1960.67887105 678.13064089 -1957.22265625 674.30078125 C-1952.2571332 671.86157694 -1948.48758507 671.19651851 -1942.97265625 670.98828125 C-1939.91763647 670.88176532 -1939.91763647 670.88176532 -1937.22265625 670.30078125 C-1934.85038007 667.45109657 -1934.85038007 667.45109657 -1933.22265625 664.30078125 C-1926.99941649 661.52018476 -1919.95009005 661.68520604 -1913.22265625 661.30078125 C-1912.89265625 660.31078125 -1912.56265625 659.32078125 -1912.22265625 658.30078125 C-1906.71742832 654.23169974 -1902.79484027 653.1723894 -1896.03515625 652.73828125 C-1894.76285156 652.65449219 -1893.49054688 652.57070312 -1892.1796875 652.484375 C-1891.20386719 652.42378906 -1890.22804688 652.36320312 -1889.22265625 652.30078125 C-1889.16078125 651.70265625 -1889.09890625 651.10453125 -1889.03515625 650.48828125 C-1887.86122527 647.32769783 -1886.22910907 646.71188793 -1883.22265625 645.30078125 C-1880.35546875 644.640625 -1880.35546875 644.640625 -1877.34765625 644.23828125 C-1870.65775166 643.26470938 -1870.65775166 643.26470938 -1864.22265625 641.30078125 C-1863.07257315 639.3340521 -1863.07257315 639.3340521 -1862.22265625 637.30078125 C-1858.69570738 635.45714889 -1855.38736354 635.02927564 -1851.44946289 634.71875 C-1844.95972007 634.20011333 -1840.38374765 633.60005862 -1835.77734375 628.6953125 C-1831.66203126 625.00393924 -1825.21404617 625.29980517 -1819.97265625 624.98828125 C-1815.10312166 624.57624371 -1813.5141132 622.93870735 -1810.22265625 619.30078125 C-1805.10663827 616.74277226 -1801.18071574 616.18665551 -1795.47265625 615.98828125 C-1792.14791522 615.88285786 -1792.14791522 615.88285786 -1789.22265625 615.30078125 C-1786.85038007 612.45109657 -1786.85038007 612.45109657 -1785.22265625 609.30078125 C-1777.79988224 606.30312252 -1769.14604448 606.66618022 -1761.22265625 606.30078125 C-1761.19171875 605.15609375 -1761.19171875 605.15609375 -1761.16015625 603.98828125 C-1760.22265625 601.30078125 -1760.22265625 601.30078125 -1757.171875 599.54296875 C-1752.53182942 597.85374102 -1747.81309533 597.58481377 -1742.91992188 597.3046875 C-1739.12913354 596.96564458 -1737.53083021 596.62847289 -1734.87890625 593.80859375 C-1734.33234375 592.98101563 -1733.78578125 592.1534375 -1733.22265625 591.30078125 C-1727.07535073 587.9779134 -1720.03096849 588.18133718 -1713.22265625 588.30078125 C-1712.88234375 587.40359375 -1712.88234375 587.40359375 -1712.53515625 586.48828125 C-1710.05458352 582.35399336 -1705.89721233 580.92771973 -1701.3828125 579.6875 C-1698.62204884 579.1932584 -1695.89850613 579.1154364 -1693.09765625 578.98828125 C-1688.32178109 578.70591903 -1688.32178109 578.70591903 -1684.47265625 575.92578125 C-1683.73015625 575.05953125 -1682.98765625 574.19328125 -1682.22265625 573.30078125 C-1674.97978419 569.54521796 -1667.21812281 569.6026934 -1659.22265625 569.30078125 C-1658.95839844 568.51058594 -1658.69414063 567.72039063 -1658.421875 566.90625 C-1657.22265625 564.30078125 -1657.22265625 564.30078125 -1654.03515625 562.61328125 C-1648.71149716 560.83545414 -1643.07918738 560.55635741 -1637.515625 560.12109375 C-1634.06138487 559.65226558 -1634.06138487 559.65226558 -1632.5859375 556.85546875 C-1632.13605469 556.01242187 -1631.68617188 555.169375 -1631.22265625 554.30078125 C-1626.35783086 551.40697167 -1620.2550286 551.6598043 -1614.72851562 551.35351562 C-1609.73807326 550.99714098 -1609.73807326 550.99714098 -1605.9765625 547.8515625 C-1605.39777344 547.00980469 -1604.81898438 546.16804688 -1604.22265625 545.30078125 C-1599.53797168 542.68094894 -1594.1797852 542.62706706 -1588.9296875 542.17773438 C-1584.81729617 541.79969194 -1584.81729617 541.79969194 -1581.35546875 539.734375 C-1580.98164062 539.26128906 -1580.6078125 538.78820313 -1580.22265625 538.30078125 C-1579.56265625 538.30078125 -1578.90265625 538.30078125 -1578.22265625 538.30078125 C-1578.22265625 537.64078125 -1578.22265625 536.98078125 -1578.22265625 536.30078125 C-1573.34609009 533.98631723 -1568.40794979 533.69103517 -1563.10546875 533.35351562 C-1557.78610282 532.84667038 -1555.67994783 531.25110209 -1552.22265625 527.30078125 C-1547.17095493 524.77493059 -1543.29246734 524.18874238 -1537.66015625 523.98828125 C-1532.05137926 523.69069908 -1529.61788475 522.66649128 -1525.734375 518.7265625 C-1522.41532795 515.59619513 -1518.14486847 515.40313203 -1513.80859375 514.921875 C-1512.56335937 514.77878906 -1511.318125 514.63570312 -1510.03515625 514.48828125 C-1508.84535156 514.37871094 -1507.65554688 514.26914063 -1506.4296875 514.15625 C-1502.47176784 513.10048337 -1501.51475448 511.59503005 -1499.22265625 508.30078125 C-1491.83393053 504.86416464 -1483.20910341 505.17401225 -1475.22265625 505.30078125 C-1475.05765625 504.53765625 -1474.89265625 503.77453125 -1474.72265625 502.98828125 C-1472.95596455 499.82295862 -1471.37281537 499.03990565 -1467.984375 497.90625 C-1465.70246926 497.40597363 -1463.55882609 497.08826371 -1461.2421875 496.8515625 C-1460.53143066 496.77832764 -1459.82067383 496.70509277 -1459.08837891 496.62963867 C-1457.6512941 496.49514351 -1456.21179641 496.38409645 -1454.77099609 496.2980957 C-1452.46737408 496.14655605 -1452.46737408 496.14655605 -1449.22265625 495.30078125 C-1447.5121898 492.89622512 -1447.5121898 492.89622512 -1446.22265625 490.30078125 C-1441.19398033 487.26281944 -1434.63550443 487.61479876 -1428.90820312 487.265625 C-1428.07998047 487.19730469 -1427.25175781 487.12898438 -1426.3984375 487.05859375 C-1425.64473877 487.00848145 -1424.89104004 486.95836914 -1424.11450195 486.90673828 C-1422.03142407 486.47507334 -1422.03142407 486.47507334 -1421.11914062 484.35742188 C-1420.82330078 483.67873047 -1420.52746094 483.00003906 -1420.22265625 482.30078125 C-1414.62470442 478.60352934 -1408.45300347 478.327915 -1401.94726562 477.66015625 C-1399.60715641 477.35868106 -1397.46102367 477.05015522 -1395.22265625 476.30078125 C-1393.54849279 473.86300017 -1393.54849279 473.86300017 -1392.22265625 471.30078125 C-1386.44842846 468.98103551 -1380.34358983 468.71656708 -1374.1875 468.35351562 C-1371.7061231 468.18027773 -1371.7061231 468.18027773 -1368.22265625 467.30078125 C-1366.54500366 464.88492039 -1366.54500366 464.88492039 -1365.22265625 462.30078125 C-1359.97433023 459.76869414 -1354.50243367 459.95108431 -1348.79296875 459.91015625 C-1346.46349102 459.87323021 -1346.46349102 459.87323021 -1343.22265625 459.30078125 C-1341.85517763 457.45140382 -1341.85517763 457.45140382 -1341.22265625 455.30078125 C-1335.01858775 451.16473558 -1328.98588445 450.61353835 -1321.7109375 450.0859375 C-1317.46175558 449.12951469 -1316.11032005 447.46554411 -1313.22265625 444.30078125 C-1306.67055881 440.97198756 -1299.3331109 440.92214736 -1292.12890625 440.8046875 C-1291.16984375 440.63839844 -1290.21078125 440.47210937 -1289.22265625 440.30078125 C-1288.14442762 438.43121038 -1288.14442762 438.43121038 -1287.22265625 436.30078125 C-1282.61817478 433.34371156 -1278.2873825 432.64378048 -1272.97265625 432.11328125 C-1271.89371094 431.99049805 -1271.89371094 431.99049805 -1270.79296875 431.86523438 C-1265.72712054 431.30078125 -1265.72712054 431.30078125 -1263.22265625 431.30078125 C-1263.05765625 430.53765625 -1262.89265625 429.77453125 -1262.72265625 428.98828125 C-1260.9764334 425.85963197 -1259.43163579 424.96987227 -1256.0625 423.859375 C-1249.5485558 422.57809024 -1242.84272493 422.5189426 -1236.22265625 422.30078125 C-1235.95710938 421.511875 -1235.6915625 420.72296875 -1235.41796875 419.91015625 C-1234.22265625 417.30078125 -1234.22265625 417.30078125 -1231.09765625 415.55078125 C-1224.00962376 412.96401475 -1216.66048587 413.16360816 -1209.22265625 413.30078125 C-1209.20203125 412.53765625 -1209.18140625 411.77453125 -1209.16015625 410.98828125 C-1208.22265625 408.30078125 -1208.22265625 408.30078125 -1205.53515625 406.61328125 C-1201.8185812 405.20992718 -1198.09340525 404.91237364 -1194.16015625 404.48828125 C-1187.46594828 403.66122493 -1185.54806456 402.24410503 -1181.22265625 397.30078125 C-1174.48317243 394.81781353 -1167.34921624 394.71360027 -1160.22265625 394.30078125 C-1160.16078125 393.40359375 -1160.16078125 393.40359375 -1160.09765625 392.48828125 C-1159.22265625 390.30078125 -1159.22265625 390.30078125 -1156.70703125 388.625 C-1152.59261285 387.0613365 -1148.82991947 386.52060689 -1144.47265625 386.11328125 C-1143.70566406 386.03142578 -1142.93867187 385.94957031 -1142.1484375 385.86523438 C-1136.75055804 385.30078125 -1136.75055804 385.30078125 -1134.22265625 385.30078125 C-1134.22265625 384.53765625 -1134.22265625 383.77453125 -1134.22265625 382.98828125 C-1133.22265625 380.30078125 -1133.22265625 380.30078125 -1130.16015625 378.61328125 C-1127.19947105 377.6353907 -1124.32635942 377.16715889 -1121.23828125 376.8515625 C-1120.52808838 376.77832764 -1119.81789551 376.70509277 -1119.08618164 376.62963867 C-1117.64991732 376.49508457 -1116.21123 376.38405788 -1114.77124023 376.2980957 C-1112.46741301 376.14657146 -1112.46741301 376.14657146 -1109.22265625 375.30078125 C-1107.5121898 372.89622512 -1107.5121898 372.89622512 -1106.22265625 370.30078125 C-1102.07414272 367.86399673 -1097.60511809 367.87717372 -1092.91015625 367.67578125 C-1092.16958984 367.63710937 -1091.42902344 367.5984375 -1090.66601562 367.55859375 C-1088.85194316 367.4649642 -1087.03733509 367.38181274 -1085.22265625 367.30078125 C-1084.89265625 366.31078125 -1084.56265625 365.32078125 -1084.22265625 364.30078125 C-1079.48176684 359.31867242 -1074.20591201 359.28248004 -1067.72851562 358.61132812 C-1062.72735228 358.0131482 -1062.72735228 358.0131482 -1058.94140625 354.8125 C-1058.090625 353.56919922 -1058.090625 353.56919922 -1057.22265625 352.30078125 C-1050.99104151 349.0415205 -1043.8951942 348.95159797 -1037.0078125 348.90234375 C-1034.0099847 348.5912808 -1034.0099847 348.5912808 -1032.58203125 345.8671875 C-1032.1334375 345.02027344 -1031.68484375 344.17335938 -1031.22265625 343.30078125 C-1025.43474591 339.78714914 -1017.82583955 339.6788295 -1011.26171875 339.12109375 C-1008.03719768 338.61930254 -1008.03719768 338.61930254 -1006.68359375 335.85546875 C-1006.20148438 335.01242187 -1005.719375 334.169375 -1005.22265625 333.30078125 C-999.72353612 330.74507506 -993.750628 330.66722395 -987.78125 330.15625 C-983.50798273 329.12897719 -982.15086997 327.48235123 -979.22265625 324.30078125 C-974.43324199 321.61740824 -969.18741179 321.94823721 -963.84179688 321.91015625 C-961.49518603 321.87299093 -961.49518603 321.87299093 -958.22265625 321.30078125 C-956.73565186 319.45327709 -956.73565186 319.45327709 -956.22265625 317.30078125 C-951.57931703 312.47170846 -944.16084565 312.32978419 -937.84765625 311.98828125 C-935.35416538 311.83929382 -935.35416538 311.83929382 -933.22265625 311.30078125 C-932.21622875 309.63798798 -931.21680218 307.97094641 -930.22265625 306.30078125 C-922.72682323 302.95418429 -914.30605164 302.67346562 -906.22265625 302.30078125 C-905.82046875 301.12515625 -905.82046875 301.12515625 -905.41015625 299.92578125 C-904.22265625 297.30078125 -904.22265625 297.30078125 -901.22265625 295.30078125 C-899.26147461 294.95361328 -899.26147461 294.95361328 -897.0625 294.80859375 C-896.26908203 294.74285156 -895.47566406 294.67710937 -894.65820312 294.609375 C-892.98950493 294.48673416 -891.32019312 294.37218049 -889.65039062 294.265625 C-888.85826172 294.19730469 -888.06613281 294.12898438 -887.25 294.05859375 C-886.52546631 294.00848145 -885.80093262 293.95836914 -885.05444336 293.90673828 C-883.03279041 293.46792014 -883.03279041 293.46792014 -882.16625977 291.39013672 C-881.85487061 290.70064941 -881.54348145 290.01116211 -881.22265625 289.30078125 C-873.89727506 284.17301441 -865.86381929 284.51051822 -857.22265625 284.30078125 C-856.95839844 283.511875 -856.69414063 282.72296875 -856.421875 281.91015625 C-855.22265625 279.30078125 -855.22265625 279.30078125 -852.03515625 277.55078125 C-845.23713174 275.07495751 -838.35906231 275.17155056 -831.22265625 275.30078125 C-831.11953125 274.70265625 -831.01640625 274.10453125 -830.91015625 273.48828125 C-830.10460753 270.92517168 -829.3424125 269.93284871 -827.22265625 268.30078125 C-820.25928988 265.94882828 -812.50147795 265.77603078 -805.22265625 265.30078125 C-804.97515625 264.51703125 -804.72765625 263.73328125 -804.47265625 262.92578125 C-803.22265625 260.30078125 -803.22265625 260.30078125 -801.63671875 259.04296875 C-797.29745495 257.70889088 -792.75827379 257.57293294 -788.24609375 257.265625 C-785.72654093 257.0739667 -785.72654093 257.0739667 -782.22265625 256.30078125 C-780.76155363 254.42730854 -780.76155363 254.42730854 -780.22265625 252.30078125 C-774.85900181 248.48976362 -769.9047376 248.10912904 -763.47265625 247.73828125 C-762.77527344 247.69509766 -762.07789063 247.65191406 -761.359375 247.60742188 C-759.64733703 247.50188529 -757.93502064 247.40088215 -756.22265625 247.30078125 C-756.03703125 246.53765625 -755.85140625 245.77453125 -755.66015625 244.98828125 C-754.00601567 241.89575755 -752.50871687 241.0482521 -749.25537109 239.84667969 C-745.00973321 238.70648676 -740.64869467 238.53903914 -736.27539062 238.3046875 C-732.4417747 237.98322461 -730.64492114 237.7686358 -728.015625 234.85546875 C-727.42394531 234.01242187 -726.83226562 233.169375 -726.22265625 232.30078125 C-721.40649495 229.55233584 -715.71050559 229.66968886 -710.28515625 229.35351562 C-707.76973579 229.17953448 -707.76973579 229.17953448 -704.22265625 228.30078125 C-702.39096333 225.92367626 -702.39096333 225.92367626 -701.22265625 223.30078125 C-698.47461485 221.59690643 -696.08836972 220.9873526 -692.89453125 220.66796875 C-692.0953125 220.58417969 -691.29609375 220.50039063 -690.47265625 220.4140625 C-689.64765625 220.33542969 -688.82265625 220.25679687 -687.97265625 220.17578125 C-687.1321875 220.08941406 -686.29171875 220.00304687 -685.42578125 219.9140625 C-683.35877402 219.70266403 -681.29079697 219.50078663 -679.22265625 219.30078125 C-679.22265625 218.64078125 -679.22265625 217.98078125 -679.22265625 217.30078125 C-673.8710328 212.60826001 -669.90370594 211.55176555 -662.91015625 211.23828125 C-659.92005371 211.09317683 -657.19317345 210.79935047 -654.22265625 210.30078125 C-652.91176422 208.46546696 -652.91176422 208.46546696 -652.22265625 206.30078125 C-648.01890898 202.91727735 -643.72301683 202.59290534 -638.53515625 202.11328125 C-637.76365234 202.03142578 -636.99214844 201.94957031 -636.19726562 201.86523438 C-630.76618304 201.30078125 -630.76618304 201.30078125 -628.22265625 201.30078125 C-628.03703125 200.53765625 -627.85140625 199.77453125 -627.66015625 198.98828125 C-626.00855604 195.90050695 -624.52556346 195.05114787 -621.2734375 193.859375 C-614.71343155 192.07255433 -607.97003724 192.19367996 -601.22265625 192.30078125 C-601.14015625 191.70265625 -601.05765625 191.10453125 -600.97265625 190.48828125 C-599.983014 187.60182469 -598.83852294 186.82783296 -596.22265625 185.30078125 C-593.7421875 184.60546875 -593.7421875 184.60546875 -591.03515625 184.17578125 C-590.06964844 184.01335937 -589.10414062 183.8509375 -588.109375 183.68359375 C-585.50928815 183.33879198 -582.96458494 183.1822852 -580.34765625 183.05078125 C-576.57398684 182.69741645 -576.38836118 182.49548454 -573.72265625 179.36328125 C-572.48515625 177.84734375 -572.48515625 177.84734375 -571.22265625 176.30078125 C-565.10147357 173.72738608 -557.76772466 173.76566461 -551.22265625 173.30078125 C-551.22265625 172.64078125 -551.22265625 171.98078125 -551.22265625 171.30078125 C-545.35079626 166.40756459 -540.09865419 165.55106633 -532.68359375 165.109375 C-530.39515333 164.97324414 -530.39515333 164.97324414 -527.22265625 164.30078125 C-525.95330714 162.41836624 -525.95330714 162.41836624 -525.22265625 160.30078125 C-520.01062502 156.97057874 -514.49097418 156.11204198 -508.41015625 155.86328125 C-503.42250286 155.69750816 -503.42250286 155.69750816 -499.34765625 152.92578125 C-498.64640625 152.05953125 -497.94515625 151.19328125 -497.22265625 150.30078125 C-491.85548999 147.47057286 -487.29680439 146.79357918 -481.28515625 146.61328125 C-480.50591797 146.57912109 -479.72667969 146.54496094 -478.92382812 146.50976562 C-477.02391232 146.42817415 -475.12331222 146.3627824 -473.22265625 146.30078125 C-473.01640625 145.53765625 -472.81015625 144.77453125 -472.59765625 143.98828125 C-470.73639748 140.35036638 -469.02003138 139.70869694 -465.22265625 138.30078125 C-462.75401866 137.946597 -460.2717565 137.67916663 -457.78515625 137.48828125 C-452.0900656 136.91994472 -448.74012484 135.85519161 -444.7421875 131.6953125 C-440.71835881 128.00249286 -434.68124608 128.26458138 -429.53515625 127.98828125 C-424.35958666 127.59726981 -422.68380374 126.22965138 -419.22265625 122.30078125 C-414.15294908 119.76592767 -410.18941604 119.16856303 -404.53515625 118.92578125 C-399.49708421 118.72947279 -399.49708421 118.72947279 -395.41015625 115.92578125 C-394.32734375 114.62640625 -394.32734375 114.62640625 -393.22265625 113.30078125 C-385.97978419 109.54521796 -378.21812281 109.6026934 -370.22265625 109.30078125 C-369.95582031 108.511875 -369.68898438 107.72296875 -369.4140625 106.91015625 C-368.22265625 104.30078125 -368.22265625 104.30078125 -365.16015625 102.55078125 C-358.21888042 100.26287469 -350.46288636 100.53937974 -343.22265625 100.30078125 C-343.11953125 99.70265625 -343.01640625 99.10453125 -342.91015625 98.48828125 C-342.09371086 95.89050046 -341.4064307 94.92069271 -339.22265625 93.30078125 C-332.07128092 91.26530608 -324.61179303 91.00652359 -317.22265625 91.30078125 C-316.99578125 90.53765625 -316.76890625 89.77453125 -316.53515625 88.98828125 C-314.84415203 85.52574879 -313.73767784 84.89851834 -310.22265625 83.30078125 C-305.96156436 82.64469137 -301.65479861 82.49444613 -297.3515625 82.3046875 C-294.88339432 82.13282986 -292.61309599 81.94245592 -290.22265625 81.30078125 C-288.28066435 78.95404534 -288.28066435 78.95404534 -287.22265625 76.30078125 C-283.73945636 73.74268064 -279.46844246 73.64101454 -275.28515625 73.17578125 C-274.23038086 73.04623047 -274.23038086 73.04623047 -273.15429688 72.9140625 C-269.49293917 72.48169973 -265.90932461 72.19977664 -262.22265625 72.30078125 C-261.82046875 71.12515625 -261.82046875 71.12515625 -261.41015625 69.92578125 C-260.22265625 67.30078125 -260.22265625 67.30078125 -257.22265625 65.30078125 C-254.89428711 64.86181641 -254.89428711 64.86181641 -252.1875 64.58984375 C-251.21361328 64.47898437 -250.23972656 64.368125 -249.23632812 64.25390625 C-247.18249241 64.03483044 -245.12777026 63.82391394 -243.07226562 63.62109375 C-242.09966797 63.50765625 -241.12707031 63.39421875 -240.125 63.27734375 C-238.78683228 63.1393335 -238.78683228 63.1393335 -237.42163086 62.99853516 C-235.0557388 62.52135895 -235.0557388 62.52135895 -234.10791016 60.34643555 C-233.66970947 59.33383667 -233.66970947 59.33383667 -233.22265625 58.30078125 C-227.93526055 55.35735205 -223.26292866 54.7925632 -217.28515625 54.61328125 C-216.50591797 54.57912109 -215.72667969 54.54496094 -214.92382812 54.50976562 C-213.02391232 54.42817415 -211.12331222 54.3627824 -209.22265625 54.30078125 C-209.22265625 53.64078125 -209.22265625 52.98078125 -209.22265625 52.30078125 C-202.92921393 45.49705982 -195.11967975 45.4489048 -186.28515625 44.98828125 C-182.02142286 44.6955806 -182.02142286 44.6955806 -178.78515625 41.86328125 C-178.01171875 40.59484375 -178.01171875 40.59484375 -177.22265625 39.30078125 C-174.19688867 37.37619874 -171.67145382 37.01065338 -168.125 36.84375 C-167.15884766 36.78251953 -166.19269531 36.72128906 -165.19726562 36.65820312 C-163.16925067 36.54473862 -161.14053327 36.44321143 -159.11132812 36.35351562 C-156.39451126 36.17021669 -153.86441356 35.96425741 -151.22265625 35.30078125 C-149.2041433 32.96973415 -149.2041433 32.96973415 -148.22265625 30.30078125 C-145.248077 28.39513949 -142.6099684 27.95777239 -139.125 27.66796875 C-138.15884766 27.58417969 -137.19269531 27.50039063 -136.19726562 27.4140625 C-134.69389648 27.29611328 -134.69389648 27.29611328 -133.16015625 27.17578125 C-132.15404297 27.08941406 -131.14792969 27.00304687 -130.11132812 26.9140625 C-122.8249628 26.30078125 -122.8249628 26.30078125 -119.22265625 26.30078125 C-119.01640625 25.70265625 -118.81015625 25.10453125 -118.59765625 24.48828125 C-116.38607088 20.96984998 -113.05139463 19.77917107 -109.1171875 18.75 C-104.16656854 17.98168532 -99.17236408 17.90207085 -94.171875 17.6953125 C-85.87086406 17.58350908 -85.87086406 17.58350908 -79.22265625 13.30078125 C-72.97260831 9.84330792 -67.9735234 9.15055094 -60.9140625 8.94140625 C-59.26362486 8.87750513 -57.61323489 8.81236259 -55.96289062 8.74609375 C-53.37143842 8.64488242 -50.78064014 8.55065388 -48.18823242 8.47753906 C-45.67882322 8.40409061 -43.17215054 8.30032595 -40.6640625 8.19140625 C-39.89308731 8.17660217 -39.12211212 8.1617981 -38.32777405 8.14654541 C-34.44380655 7.95201502 -32.65474225 7.76190765 -29.94506836 4.87011719 C-22.78666175 -1.88578553 -9.25750044 -0.01063443 0 0 Z " fill="#FFFFFF" transform="translate(2534.22265625,689.69921875)"/>
</svg>
