<svg width="500" height="500" viewBox="0 0 500 500" fill="none" xmlns="http://www.w3.org/2000/svg">
<rect width="500" height="500" rx="10" fill="white"/>
<rect x="15" y="10" width="470" height="54" rx="10" fill="#D9D9D9"/>
<rect x="82" y="79" width="403" height="401" rx="10" fill="#D9D9D9"/>
<rect x="93" y="89" width="381" height="44" rx="10" fill="#868282"/>
<rect x="93" y="144" width="381" height="44" rx="10" fill="#868282"/>
<rect x="93" y="201" width="381" height="44" rx="10" fill="#868282"/>
<rect x="93" y="256" width="381" height="44" rx="10" fill="#868282"/>
<rect x="93" y="312" width="381" height="44" rx="10" fill="#868282"/>
<rect x="93" y="367" width="381" height="44" rx="10" fill="#868282"/>
<rect x="93" y="424" width="381" height="44" rx="10" fill="#868282"/>
<rect x="24" y="22" width="30" height="30" rx="15" fill="#FF0F0F"/>
<rect x="71" y="29" width="305" height="16" rx="8" fill="#00944D"/>
<rect x="439" y="27" width="35" height="21" rx="10" fill="#868282"/>
<rect x="15" y="480" width="401" height="54" rx="10" transform="rotate(-90 15 480)" fill="#262626"/>
<g clip-path="url(#clip0_1_98)">
<path d="M0 9.99999C0 4.47714 4.47715 0 10 0H250V500H10C4.47716 500 0 495.523 0 490V9.99999Z" fill="#0A0A0A"/>
<rect x="14" y="10" width="346" height="54" rx="10" fill="#262626"/>
<rect x="82" y="79" width="403" height="401" rx="10" fill="#262626"/>
<rect x="93" y="89" width="381" height="44" rx="10" fill="#868282"/>
<rect x="93" y="144" width="381" height="44" rx="10" fill="#868282"/>
<rect x="93" y="201" width="381" height="44" rx="10" fill="#868282"/>
<rect x="93" y="256" width="381" height="44" rx="10" fill="#868282"/>
<rect x="93" y="312" width="381" height="44" rx="10" fill="#868282"/>
<rect x="93" y="367" width="381" height="44" rx="10" fill="#868282"/>
<rect x="93" y="424" width="381" height="44" rx="10" fill="#868282"/>
<rect x="24" y="21" width="30" height="30" rx="15" fill="#FF0F0F"/>
<rect x="71" y="28" width="305" height="16" rx="8" fill="#00944D"/>
<rect x="14" y="79" width="50" height="401" rx="10" fill="#262626"/>
</g>
<defs>
<clipPath id="clip0_1_98">
<path d="M0 9.99999C0 4.47714 4.47715 0 10 0H250V500H10C4.47716 500 0 495.523 0 490V9.99999Z" fill="white"/>
</clipPath>
</defs>
</svg>
