<svg width="1280" height="832" viewBox="0 0 1280 832" fill="none" xmlns="http://www.w3.org/2000/svg">
<rect width="1280" height="832" fill="white"/>
<rect x="635" width="645" height="832" fill="#282828"/>
<path d="M31 55C31 43.9543 39.9543 35 51 35H635V114H51C39.9543 114 31 105.046 31 94V55Z" fill="#D9D9D9"/>
<path d="M635 35H1228C1239.05 35 1248 43.9543 1248 55V94C1248 105.046 1239.05 114 1228 114H635V35Z" fill="#4D4D4D"/>
<rect x="153" y="146" width="462" height="653" rx="20" fill="#D9D9D9"/>
<path d="M660 166C660 154.954 668.954 146 680 146H1109C1120.05 146 1129 154.954 1129 166V779C1129 790.046 1120.05 799 1109 799H680C668.954 799 660 790.046 660 779V166Z" fill="#4D4D4D"/>
<rect x="34" y="146" width="93" height="653" rx="20" fill="#D9D9D9"/>
<rect x="1155" y="146" width="93" height="653" rx="20" fill="#4D4D4D"/>
</svg>
