<svg width="500" height="500" viewBox="0 0 500 500" fill="none" xmlns="http://www.w3.org/2000/svg">
<rect width="500" height="500" rx="10" fill="#0A0A0A"/>
<rect x="15" y="10" width="470" height="54" rx="10" fill="#262626"/>
<path d="M25 480C19.4772 480 15 475.523 15 470L15 89C15 83.4771 19.4772 79 25 79H59C64.5228 79 69 83.4771 69 89L69 470C69 475.523 64.5228 480 59 480H25Z" fill="#262626"/>
<rect x="82" y="79" width="403" height="401" rx="10" fill="#262626"/>
<rect x="93" y="89" width="381" height="44" rx="10" fill="#868282"/>
<rect x="93" y="144" width="381" height="44" rx="10" fill="#868282"/>
<rect x="93" y="201" width="381" height="44" rx="10" fill="#868282"/>
<rect x="93" y="256" width="381" height="44" rx="10" fill="#868282"/>
<rect x="93" y="312" width="381" height="44" rx="10" fill="#868282"/>
<rect x="93" y="367" width="381" height="44" rx="10" fill="#868282"/>
<rect x="93" y="424" width="381" height="44" rx="10" fill="#868282"/>
<rect x="24" y="22" width="30" height="30" rx="15" fill="#FF0F0F"/>
<rect x="71" y="29" width="305" height="16" rx="8" fill="#00944D"/>
<rect x="439" y="27" width="35" height="21" rx="10" fill="#868282"/>
</svg>
