<svg width="1280" height="832" viewBox="0 0 1280 832" fill="none" xmlns="http://www.w3.org/2000/svg">
<rect width="1280" height="832" fill="#282828"/>
<path d="M31 55C31 43.9543 39.9543 35 51 35H635V114H51C39.9543 114 31 105.046 31 94V55Z" fill="#4D4D4D"/>
<path d="M635 35H1228C1239.05 35 1248 43.9543 1248 55V94C1248 105.046 1239.05 114 1228 114H635V35Z" fill="#4D4D4D"/>
<rect x="31" y="146" width="93" height="653" rx="20" fill="#4D4D4D"/>
<rect x="150" y="146" width="462" height="653" rx="20" fill="#4D4D4D"/>
<path d="M638 166C638 154.954 646.954 146 658 146H1087C1098.05 146 1107 154.954 1107 166V779C1107 790.046 1098.05 799 1087 799H658C646.954 799 638 790.046 638 779V166Z" fill="#4D4D4D"/>
<rect x="1133" y="146" width="93" height="653" rx="20" fill="#4D4D4D"/>
</svg>
